<?xml version="1.0" encoding="utf-8"?>
<!-- Generator: Adobe Illustrator 16.0.0, SVG Export Plug-In . SVG Version: 6.00 Build 0)  -->
<!DOCTYPE svg PUBLIC "-//W3C//DTD SVG 1.1//EN" "http://www.w3.org/Graphics/SVG/1.1/DTD/svg11.dtd">
<svg version="1.1" id="Layer_1" xmlns="http://www.w3.org/2000/svg" xmlns:xlink="http://www.w3.org/1999/xlink" x="0px" y="0px"
	 width="400px" height="400px" viewBox="0 0 400 400" enable-background="new 0 0 400 400" xml:space="preserve">
<path fill="#93A1AE" d="M218.206,108.989h-36.412v72.805h-72.805v36.403h72.805v72.814h36.412v-72.814h72.806v-36.403h-72.806
	V108.989z M200,17.978C99.896,17.978,17.978,99.886,17.978,200c0,100.104,81.918,182.022,182.022,182.022
	S382.022,300.104,382.022,200C382.022,99.886,300.104,17.978,200,17.978z M200,345.61c-80.084,0-145.611-65.526-145.611-145.61
	c0-80.094,65.527-145.62,145.611-145.62S345.61,119.906,345.61,200C345.61,280.084,280.084,345.61,200,345.61z"/>
</svg>
