<?xml version="1.0" encoding="utf-8"?>
<!-- Generator: Adobe Illustrator 16.0.0, SVG Export Plug-In . SVG Version: 6.00 Build 0)  -->
<!DOCTYPE svg PUBLIC "-//W3C//DTD SVG 1.1//EN" "http://www.w3.org/Graphics/SVG/1.1/DTD/svg11.dtd">
<svg version="1.1" id="Layer_1" xmlns="http://www.w3.org/2000/svg" xmlns:xlink="http://www.w3.org/1999/xlink" x="0px" y="0px"
	 width="400px" height="400px" viewBox="0 0 400 400" enable-background="new 0 0 400 400" xml:space="preserve">
<g>
	<g>
		<path fill="#929FAA" d="M385.474,71.773c-2.114-3.55-5.58-6.058-9.58-6.875l-212.39-51.702c-6.988-1.38-13.918,2.536-16.342,9.271
			L66.213,230.234l27.021,9.946l76.722-197.542L354.507,90.2c-11.523,36.094-38.938,111.436-65.227,181.594
			c-22.936,61.198-36.122,82.133-61.197,86.415c-0.028-0.028-0.057-0.057-0.057-0.085c-51.224,7.241-50.294-58.719-50.294-58.719
			L14.087,232.63c-11.608,74.439,45.025,92.359,45.025,92.359l119.775,54.943c0.028,0,18.737,9.016,39.052,8.087
			c54.829-1.324,74.102-41.531,98.249-105.941c34.853-93.122,70.27-197.458,70.609-198.555
			C388.065,79.577,387.558,75.323,385.474,71.773z M288.66,155.539c1.239,0.367,2.537,0.536,3.805,0.536
			c6.312,0,12.086-4.255,13.862-10.707c2.113-7.72-2.451-15.722-10.087-17.834l-62.354-19.441
			c-7.552-2.114-15.581,2.423-17.667,10.171c-2.085,7.748,2.424,15.75,10.087,17.864L288.66,155.539z M191.257,176.475
			c-2.507,7.607,1.549,15.835,9.1,18.371l61.988,22.399c1.521,0.507,2.985,0.733,4.48,0.733c6.058,0.027,11.72-3.806,13.749-9.92
			c2.508-7.606-1.549-15.834-9.102-18.37l-61.986-22.371C201.906,164.782,193.792,168.867,191.257,176.475z M185.79,227.952
			c-7.523-2.536-15.666,1.605-18.146,9.27c-2.479,7.579,1.663,15.835,9.186,18.313l62.156,22.287
			c1.493,0.536,2.986,0.733,4.508,0.733c6.029,0,11.665-3.888,13.638-9.975c2.479-7.635-1.635-15.862-9.186-18.342L185.79,227.952z
			 M183.508,91.13c-8.819,0-15.976,7.044-15.976,15.666c0,8.678,7.157,15.665,15.976,15.665c8.792,0,15.947-6.987,15.947-15.665
			C199.455,98.174,192.3,91.13,183.508,91.13z M144.992,165.035c0,8.65,7.129,15.666,15.948,15.666s15.947-7.016,15.947-15.666
			s-7.128-15.666-15.947-15.666S144.992,156.385,144.992,165.035z M120.901,225.162c0,8.621,7.157,15.638,15.976,15.638
			c8.791,0,15.947-7.017,15.947-15.638c0-8.679-7.157-15.693-15.947-15.693C128.058,209.469,120.901,216.483,120.901,225.162z"/>
	</g>
</g>
</svg>
