<?xml version="1.0" encoding="utf-8"?>
<!-- Generator: Adobe Illustrator 16.0.0, SVG Export Plug-In . SVG Version: 6.00 Build 0)  -->
<!DOCTYPE svg PUBLIC "-//W3C//DTD SVG 1.1//EN" "http://www.w3.org/Graphics/SVG/1.1/DTD/svg11.dtd">
<svg version="1.1" id="Layer_1" xmlns="http://www.w3.org/2000/svg" xmlns:xlink="http://www.w3.org/1999/xlink" x="0px" y="0px"
	 width="400px" height="400px" viewBox="0 0 400 400" enable-background="new 0 0 400 400" xml:space="preserve">
<path fill="#93A1AE" d="M176,25.31c-64.394,0-116.785,50.654-116.785,112.916c0,25.073,16.563,65.971,50.638,124.997
	c24.09,41.74,47.793,76.568,48.794,78.026L176,366.689l17.354-25.44c1-1.458,24.704-36.286,48.794-78.026
	c34.074-59.025,50.638-99.924,50.638-124.997C292.785,75.964,240.394,25.31,176,25.31z M176,196.004
	c-33.424,0-60.532-26.214-60.532-58.533c0-32.337,27.108-58.533,60.532-58.533c33.425,0,60.532,26.196,60.532,58.533
	C236.532,169.79,209.425,196.004,176,196.004z"/>
<g>
	<g>
		<path fill="#9E9E9E" d="M292.815,384.089c-3.544-0.001-6.954-1.442-9.603-4.062l-0.131-0.129l-0.121-0.138
			c-4.429-5.072-3.996-12.692,1.008-17.727l0.108-0.109l22.786-20.252H190.209c-6.956,0-12.405-5.622-12.405-12.8
			c0-7.067,5.733-12.816,12.781-12.816h116.309l-22.447-19.94c-2.269-1.658-3.965-4.554-4.468-7.674
			c-0.577-3.573,0.442-7.223,2.87-10.277l0.077-0.098l0.082-0.093c2.413-2.743,5.943-4.316,9.688-4.316
			c3.103,0,6.046,1.101,8.288,3.098l47.445,42.854c2.83,2.344,4.477,5.465,4.642,8.803c0.179,3.622-1.379,7.259-4.387,10.237
			l-0.097,0.097l-47.611,42.251C298.74,382.988,295.84,384.089,292.815,384.089C292.816,384.089,292.816,384.089,292.815,384.089z
			 M220.118,301.347c-3.118,0-6.068-1.104-8.309-3.109l-47.389-42.804c-2.764-2.192-4.442-5.647-4.504-9.295
			c-0.063-3.735,1.562-7.247,4.462-9.655l47.431-42.466c2.252-2.005,5.149-3.104,8.17-3.104c3.505,0,6.999,1.491,9.585,4.092
			l0.107,0.108l0.102,0.115c4.457,5.067,4.037,12.693-0.978,17.738l-0.109,0.109l-22.78,20.234h116.686
			c7.047,0,12.78,5.75,12.78,12.817c0,7.057-5.733,12.798-12.78,12.798H205.9l22.671,20.15c2.437,2.142,3.987,5.311,4.236,8.678
			c0.252,3.414-0.854,6.794-3.034,9.272C227.415,299.76,223.885,301.347,220.118,301.347
			C220.119,301.347,220.119,301.347,220.118,301.347z"/>
		<path fill="#DCE5EC" d="M219.979,195.913c2.141,0,4.332,0.9,6.039,2.617c2.737,3.112,2.325,7.799-0.769,10.911l-32.502,28.869
			h129.844c4.274,0,7.78,3.543,7.78,7.817c0,4.275-3.506,7.798-7.78,7.798H192.748l32.502,28.888
			c3.094,2.72,3.506,7.799,0.769,10.911c-1.493,1.729-3.703,2.623-5.899,2.623c-1.803,0-3.597-0.603-4.975-1.836l-47.509-42.911
			c-3.327-2.522-3.917-8.139,0-11.322l47.509-42.535C216.532,196.508,218.238,195.913,219.979,195.913 M292.695,278.658
			c1.792,0,3.575,0.596,4.962,1.831l47.508,42.911c4.008,3.255,3.774,7.959,0,11.698l-47.508,42.159
			c-1.388,1.235-3.096,1.831-4.842,1.831c-2.146,0-4.352-0.9-6.088-2.617c-2.718-3.112-2.307-7.8,0.787-10.912l32.501-28.887
			H190.209c-4.293,0-7.405-3.523-7.405-7.8c0-4.275,3.505-7.816,7.781-7.816h129.467l-32.501-28.87
			c-1.968-1.287-4.598-6.117-0.788-10.91C288.272,279.56,290.49,278.658,292.695,278.658 M219.979,185.913
			c-4.247,0-8.326,1.549-11.485,4.362L161.108,232.7c-4.026,3.381-6.279,8.293-6.191,13.523c0.086,5.072,2.416,9.897,6.258,13.018
			l47.266,42.691c3.191,2.857,7.327,4.414,11.678,4.414c5.206,0,10.102-2.206,13.44-6.055c3.04-3.478,4.583-8.179,4.234-12.906
			c-0.344-4.649-2.498-9.041-5.913-12.058l-12.829-11.402h103.54c9.804,0,17.78-7.984,17.78-17.798
			c0-9.824-7.977-17.817-17.78-17.817H219.064l12.826-11.393l0.232-0.206l0.219-0.221c6.894-6.935,7.403-17.495,1.186-24.565
			l-0.202-0.229l-0.216-0.217C229.592,187.942,224.807,185.913,219.979,185.913L219.979,185.913z M292.695,268.658
			c-5.181,0-10.08,2.192-13.441,6.014l-0.165,0.188l-0.154,0.194c-3.313,4.169-4.695,9.206-3.893,14.185
			c0.703,4.354,3.011,8.305,6.245,10.76l12.449,11.059H190.585c-9.805,0-17.781,7.992-17.781,17.816c0,9.981,7.646,17.8,17.405,17.8
			h103.503l-12.841,11.412l-0.23,0.205l-0.218,0.22c-6.876,6.917-7.404,17.467-1.228,24.539l0.241,0.276l0.261,0.258
			c3.591,3.551,8.25,5.506,13.118,5.506c4.252,0,8.333-1.55,11.492-4.363l47.495-42.147l0.205-0.183l0.195-0.192
			c4.029-3.992,6.11-8.977,5.861-14.037c-0.233-4.723-2.488-9.091-6.358-12.333l-47.346-42.765l-0.025-0.023l-0.026-0.022
			C301.149,270.208,297.025,268.658,292.695,268.658L292.695,268.658z"/>
	</g>
</g>
<g>
	<g>
		<path fill="#93A1AE" d="M226.019,293.725c2.737-3.112,2.325-8.191-0.769-10.911l-32.502-28.888h129.844
			c4.274,0,7.78-3.522,7.78-7.798c0-4.274-3.506-7.817-7.78-7.817H192.748l32.502-28.869c3.094-3.112,3.506-7.799,0.769-10.911
			c-3.095-3.112-7.78-3.542-10.874-0.787l-47.509,42.535c-3.917,3.184-3.327,8.8,0,11.322l47.509,42.911
			C218.202,297.249,223.301,296.874,226.019,293.725z M345.165,323.4l-47.508-42.911c-3.094-2.756-8.157-2.325-10.895,0.787
			c-3.81,4.793-1.18,9.623,0.788,10.91l32.501,28.87H190.585c-4.276,0-7.781,3.541-7.781,7.816c0,4.276,3.112,7.8,7.405,7.8h129.807
			l-32.501,28.887c-3.094,3.112-3.505,7.8-0.787,10.912c3.148,3.112,7.836,3.541,10.93,0.786l47.508-42.159
			C348.939,331.359,349.173,326.655,345.165,323.4z"/>
	</g>
</g>
</svg>
