<?xml version="1.0" encoding="utf-8"?>
<!-- Generator: Adobe Illustrator 16.0.0, SVG Export Plug-In . SVG Version: 6.00 Build 0)  -->
<!DOCTYPE svg PUBLIC "-//W3C//DTD SVG 1.1//EN" "http://www.w3.org/Graphics/SVG/1.1/DTD/svg11.dtd">
<svg version="1.1" id="Layer_1" xmlns="http://www.w3.org/2000/svg" xmlns:xlink="http://www.w3.org/1999/xlink" x="0px" y="0px"
	 width="400px" height="400px" viewBox="0 0 400 400" enable-background="new 0 0 400 400" xml:space="preserve">
<path fill="#FFFFFF" d="M176,25.31c-64.394,0-116.785,50.654-116.785,112.916c0,25.073,16.563,65.971,50.638,124.997
	c24.09,41.74,47.793,76.568,48.794,78.026L176,366.689l17.354-25.44c1-1.458,24.705-36.286,48.794-78.026
	c34.074-59.024,50.638-99.924,50.638-124.997C292.785,75.964,240.395,25.31,176,25.31z M176,196.004
	c-33.424,0-60.532-26.214-60.532-58.533c0-32.337,27.108-58.533,60.532-58.533c33.425,0,60.532,26.196,60.532,58.533
	C236.532,169.79,209.425,196.004,176,196.004z"/>
<g>
	<g>
		<path fill="#9E9E9E" d="M292.814,384.089c-3.543-0.001-6.953-1.442-9.603-4.062l-0.131-0.129l-0.121-0.139
			c-4.429-5.072-3.996-12.691,1.008-17.727l0.108-0.109l22.786-20.252H190.209c-6.956,0-12.405-5.622-12.405-12.8
			c0-7.067,5.733-12.815,12.781-12.815h116.309l-22.446-19.94c-2.27-1.658-3.965-4.554-4.469-7.675
			c-0.576-3.572,0.442-7.223,2.871-10.276l0.076-0.099l0.082-0.092c2.413-2.744,5.943-4.316,9.688-4.316
			c3.104,0,6.047,1.101,8.289,3.098l47.444,42.854c2.83,2.345,4.478,5.466,4.643,8.804c0.179,3.622-1.379,7.259-4.388,10.237
			l-0.097,0.097l-47.61,42.251C298.74,382.988,295.84,384.089,292.814,384.089C292.816,384.089,292.816,384.089,292.814,384.089z
			 M220.118,301.348c-3.118,0-6.068-1.104-8.31-3.109l-47.389-42.805c-2.764-2.191-4.442-5.646-4.504-9.295
			c-0.063-3.734,1.562-7.246,4.462-9.654l47.431-42.466c2.252-2.005,5.149-3.104,8.17-3.104c3.506,0,7,1.491,9.586,4.092
			l0.106,0.108l0.103,0.115c4.457,5.067,4.037,12.693-0.979,17.738l-0.109,0.109l-22.779,20.234h116.686
			c7.047,0,12.78,5.75,12.78,12.816c0,7.057-5.733,12.798-12.78,12.798H205.9l22.67,20.15c2.438,2.142,3.988,5.311,4.236,8.678
			c0.252,3.414-0.854,6.794-3.033,9.272C227.415,299.76,223.885,301.348,220.118,301.348
			C220.119,301.348,220.119,301.348,220.118,301.348z"/>
		<path fill="#DCE5EC" d="M219.979,195.913c2.142,0,4.332,0.9,6.039,2.617c2.737,3.113,2.325,7.799-0.769,10.912l-32.502,28.869
			h129.844c4.274,0,7.78,3.543,7.78,7.816c0,4.275-3.506,7.798-7.78,7.798H192.748l32.502,28.888
			c3.094,2.721,3.506,7.799,0.77,10.912c-1.494,1.729-3.703,2.623-5.899,2.623c-1.804,0-3.597-0.604-4.976-1.837L167.636,251.6
			c-3.327-2.521-3.917-8.139,0-11.322l47.509-42.534C216.532,196.508,218.238,195.913,219.979,195.913 M292.695,278.658
			c1.791,0,3.574,0.596,4.962,1.83l47.508,42.912c4.008,3.254,3.774,7.959,0,11.697l-47.508,42.159
			c-1.388,1.235-3.097,1.831-4.843,1.831c-2.146,0-4.352-0.9-6.088-2.617c-2.718-3.111-2.307-7.8,0.787-10.912l32.501-28.887
			H190.209c-4.293,0-7.405-3.523-7.405-7.8c0-4.274,3.505-7.815,7.781-7.815h129.467l-32.501-28.871
			c-1.968-1.287-4.598-6.117-0.787-10.91C288.271,279.561,290.49,278.658,292.695,278.658 M219.979,185.913
			c-4.246,0-8.326,1.549-11.484,4.362L161.108,232.7c-4.026,3.381-6.279,8.293-6.191,13.522c0.086,5.072,2.416,9.897,6.258,13.019
			l47.267,42.69c3.19,2.857,7.326,4.414,11.678,4.414c5.206,0,10.102-2.205,13.439-6.055c3.041-3.479,4.584-8.18,4.234-12.906
			c-0.344-4.648-2.498-9.041-5.913-12.058l-12.829-11.402h103.54c9.804,0,17.78-7.983,17.78-17.798
			c0-9.824-7.978-17.816-17.78-17.816H219.064l12.826-11.394l0.231-0.206l0.219-0.221c6.894-6.936,7.403-17.495,1.187-24.565
			l-0.202-0.229l-0.216-0.217C229.592,187.942,224.807,185.913,219.979,185.913L219.979,185.913z M292.695,268.658
			c-5.182,0-10.08,2.191-13.441,6.014l-0.165,0.188l-0.153,0.195c-3.313,4.168-4.695,9.205-3.894,14.184
			c0.703,4.354,3.011,8.306,6.245,10.761l12.449,11.06H190.585c-9.805,0-17.781,7.991-17.781,17.815c0,9.981,7.646,17.8,17.405,17.8
			h103.503l-12.841,11.412l-0.23,0.205l-0.218,0.22c-6.876,6.917-7.403,17.468-1.228,24.539l0.24,0.276l0.262,0.258
			c3.591,3.551,8.25,5.506,13.117,5.506c4.252,0,8.334-1.55,11.492-4.363l47.495-42.146l0.205-0.184l0.195-0.191
			c4.029-3.992,6.109-8.977,5.86-14.037c-0.232-4.723-2.487-9.091-6.357-12.333l-47.346-42.765l-0.025-0.023l-0.025-0.021
			C301.148,270.208,297.025,268.658,292.695,268.658L292.695,268.658z"/>
	</g>
</g>
<g>
	<g>
		<path fill="#FFFFFF" d="M226.02,293.725c2.736-3.111,2.324-8.19-0.77-10.91l-32.502-28.889h129.844c4.274,0,7.78-3.521,7.78-7.798
			c0-4.274-3.506-7.817-7.78-7.817H192.748l32.502-28.869c3.094-3.111,3.506-7.799,0.77-10.91
			c-3.096-3.112-7.781-3.542-10.875-0.787l-47.508,42.535c-3.917,3.184-3.327,8.8,0,11.322l47.508,42.91
			C218.202,297.249,223.301,296.874,226.02,293.725z M345.165,323.4l-47.508-42.912c-3.095-2.756-8.157-2.324-10.896,0.787
			c-3.81,4.793-1.18,9.623,0.788,10.91l32.501,28.871H190.585c-4.276,0-7.781,3.541-7.781,7.815c0,4.276,3.112,7.8,7.405,7.8
			h129.807l-32.5,28.887c-3.095,3.112-3.506,7.801-0.787,10.912c3.147,3.112,7.836,3.541,10.93,0.786l47.508-42.159
			C348.939,331.359,349.173,326.654,345.165,323.4z"/>
	</g>
</g>
</svg>
