<?xml version="1.0" encoding="utf-8"?>
<!-- Generator: Adobe Illustrator 16.0.0, SVG Export Plug-In . SVG Version: 6.00 Build 0)  -->
<!DOCTYPE svg PUBLIC "-//W3C//DTD SVG 1.1//EN" "http://www.w3.org/Graphics/SVG/1.1/DTD/svg11.dtd">
<svg version="1.1" id="Layer_1" xmlns="http://www.w3.org/2000/svg" xmlns:xlink="http://www.w3.org/1999/xlink" x="0px" y="0px"
	 width="400px" height="400px" viewBox="0 0 400 400" enable-background="new 0 0 400 400" xml:space="preserve">
<g>
	<g>
		<path fill="#FFFFFF" d="M337.876,205.348c0.138-2.272,0.197-4.525,0.197-6.74c0-71.437-61.738-129.563-137.64-129.563
			c-41.69,0-80.665,17.519-106.968,48.053l-4.505,5.233l74.466,24.091l2.026-1.18c10.486-6.119,22.586-9.346,34.981-9.346
			c36.75,0,66.635,28.134,66.635,62.711c0,2.223-0.157,4.477-0.414,6.739h-46.094l85.424,125.608l85.405-125.608h-53.514V205.348z
			 M89.667,171.143c-44.699,0-81.057,34.224-81.057,76.296c0,42.084,36.358,76.315,81.057,76.315
			c44.7,0,81.077-34.231,81.077-76.315C170.745,205.366,134.368,171.143,89.667,171.143z"/>
	</g>
</g>
</svg>
