<?xml version="1.0" encoding="utf-8"?>
<!-- Generator: Adobe Illustrator 16.0.0, SVG Export Plug-In . SVG Version: 6.00 Build 0)  -->
<!DOCTYPE svg PUBLIC "-//W3C//DTD SVG 1.1//EN" "http://www.w3.org/Graphics/SVG/1.1/DTD/svg11.dtd">
<svg version="1.1" id="Layer_1" xmlns="http://www.w3.org/2000/svg" xmlns:xlink="http://www.w3.org/1999/xlink" x="0px" y="0px"
	 width="400px" height="400px" viewBox="0 0 400 400" enable-background="new 0 0 400 400" xml:space="preserve">
<g>
	<g>
		<polyline fill="#878691" points="275.918,333.373 275.918,145.795 243.918,145.795 243.918,58.396 199.918,58.396 155.918,58.396 
			155.918,145.795 123.918,145.795 123.918,333.373 		"/>
		<rect x="123.918" y="306.873" fill="#767582" width="152" height="26.5"/>
		<rect x="177.358" y="286.503" fill="#C2C3C9" width="5" height="36.87"/>
		<rect x="217.198" y="286.503" fill="#C2C3C9" width="5" height="36.87"/>
		<rect x="182.358" y="286.503" fill="#87868A" width="34.84" height="36.87"/>
		<rect x="177.358" y="283.806" fill="#C2C3C9" width="44.84" height="5.054"/>
		<rect x="172.437" y="323.185" fill="#A0A0A3" width="54.962" height="2.547"/>
		<rect x="169.431" y="325.731" fill="#C2C3C9" width="60.694" height="2.547"/>
		<rect x="166.172" y="328.278" fill="#D8D9DD" width="67.212" height="2.548"/>
		<rect x="162.904" y="330.826" fill="#EDEEF0" width="74.026" height="2.547"/>
		<rect x="149.638" y="283.806" fill="#D8D9DD" width="8.334" height="49.567"/>
		<path fill="#C2C3C9" d="M153.216,331.266c0,0.46-0.502,0.834-1.122,0.834l0,0c-0.62,0-1.122-0.374-1.122-0.834V286.19
			c0-0.46,0.502-0.833,1.122-0.833l0,0c0.62,0,1.122,0.373,1.122,0.833V331.266z"/>
		<path fill="#C2C3C9" d="M156.597,331.266c0,0.46-0.503,0.834-1.123,0.834l0,0c-0.62,0-1.122-0.374-1.122-0.834V286.19
			c0-0.46,0.502-0.833,1.122-0.833l0,0c0.62,0,1.123,0.373,1.123,0.833V331.266z"/>
		<rect x="241.81" y="283.806" fill="#D8D9DD" width="8.333" height="49.567"/>
		<path fill="#C2C3C9" d="M245.388,331.266c0,0.46-0.502,0.834-1.122,0.834l0,0c-0.62,0-1.123-0.374-1.123-0.834V286.19
			c0-0.46,0.503-0.833,1.123-0.833l0,0c0.62,0,1.122,0.373,1.122,0.833V331.266z"/>
		<path fill="#C2C3C9" d="M248.768,331.266c0,0.46-0.502,0.834-1.122,0.834l0,0c-0.62,0-1.122-0.374-1.122-0.834V286.19
			c0-0.46,0.502-0.833,1.122-0.833l0,0c0.62,0,1.122,0.373,1.122,0.833V331.266z"/>
		<rect x="52.571" y="333.479" fill="#E5B998" width="294.692" height="9.524"/>
		<rect x="143.645" y="280.67" fill="#95959E" width="111.75" height="3.136"/>
		<path fill="#D8D9DD" d="M200.069,280.67h58.772v-4.842h-25.027c0-7.731-15.354-14-34.295-14c-18.939,0-34.294,6.269-34.294,14
			h-25.027v4.842H200.069"/>
		<path fill="#C2C3C9" d="M199.778,266.625c22.579,0,28.272,9.25,28.272,9.25h-28.272h-28.272
			C171.506,275.875,177.199,266.625,199.778,266.625z"/>
		<g>
			<g>
				<g>
					<g>
						<rect x="131.145" y="237.373" fill="#BEECFC" width="11.187" height="17.328"/>
						<rect x="145.183" y="237.373" fill="#BEECFC" width="11.187" height="17.328"/>
					</g>
					<g>
						<rect x="159.221" y="237.373" fill="#BEECFC" width="11.187" height="17.328"/>
						<rect x="173.259" y="237.373" fill="#BEECFC" width="11.187" height="17.328"/>
					</g>
				</g>
				<g>
					<g>
						<rect x="187.297" y="237.373" fill="#BEECFC" width="11.187" height="17.328"/>
						<rect x="201.335" y="237.373" fill="#BEECFC" width="11.187" height="17.328"/>
					</g>
					<g>
						<rect x="215.373" y="237.373" fill="#BEECFC" width="11.187" height="17.328"/>
						<rect x="229.411" y="237.373" fill="#BEECFC" width="11.187" height="17.328"/>
					</g>
				</g>
			</g>
			<g>
				<rect x="243.997" y="237.373" fill="#BEECFC" width="11.187" height="17.328"/>
				<rect x="258.035" y="237.373" fill="#BEECFC" width="11.187" height="17.328"/>
			</g>
		</g>
		<rect x="155.918" y="58.396" fill="#767582" width="88" height="87.399"/>
		<rect x="123.918" y="142.623" fill="#D8D9DD" width="152" height="5"/>
		<rect x="155.918" y="57.373" fill="#D8D9DD" width="88" height="5"/>
		<g>
			<g>
				<g>
					<g>
						<rect x="131.145" y="216.373" fill="#BEECFC" width="11.187" height="17.328"/>
						<rect x="145.183" y="216.373" fill="#BEECFC" width="11.187" height="17.328"/>
					</g>
					<g>
						<rect x="159.221" y="216.373" fill="#BEECFC" width="11.187" height="17.328"/>
						<rect x="173.259" y="216.373" fill="#BEECFC" width="11.187" height="17.328"/>
					</g>
				</g>
				<g>
					<g>
						<rect x="187.297" y="216.373" fill="#BEECFC" width="11.187" height="17.328"/>
						<rect x="201.335" y="216.373" fill="#BEECFC" width="11.187" height="17.328"/>
					</g>
					<g>
						<rect x="215.373" y="216.373" fill="#BEECFC" width="11.187" height="17.328"/>
						<rect x="229.411" y="216.373" fill="#BEECFC" width="11.187" height="17.328"/>
					</g>
				</g>
			</g>
			<g>
				<rect x="243.997" y="216.373" fill="#BEECFC" width="11.187" height="17.328"/>
				<rect x="258.035" y="216.373" fill="#BEECFC" width="11.187" height="17.328"/>
			</g>
		</g>
		<g>
			<g>
				<g>
					<g>
						<rect x="131.145" y="195.498" fill="#BEECFC" width="11.187" height="17.329"/>
						<rect x="145.183" y="195.498" fill="#BEECFC" width="11.187" height="17.329"/>
					</g>
					<g>
						<rect x="159.221" y="195.498" fill="#BEECFC" width="11.187" height="17.329"/>
						<rect x="173.259" y="195.498" fill="#BEECFC" width="11.187" height="17.329"/>
					</g>
				</g>
				<g>
					<g>
						<rect x="187.297" y="195.498" fill="#BEECFC" width="11.187" height="17.329"/>
						<rect x="201.335" y="195.498" fill="#BEECFC" width="11.187" height="17.329"/>
					</g>
					<g>
						<rect x="215.373" y="195.498" fill="#BEECFC" width="11.187" height="17.329"/>
						<rect x="229.411" y="195.498" fill="#BEECFC" width="11.187" height="17.329"/>
					</g>
				</g>
			</g>
			<g>
				<rect x="243.997" y="195.498" fill="#BEECFC" width="11.187" height="17.329"/>
				<rect x="258.035" y="195.498" fill="#BEECFC" width="11.187" height="17.329"/>
			</g>
		</g>
		<g>
			<g>
				<g>
					<g>
						<rect x="131.145" y="174.498" fill="#BEECFC" width="11.187" height="17.328"/>
						<rect x="145.183" y="174.498" fill="#BEECFC" width="11.187" height="17.328"/>
					</g>
					<g>
						<rect x="159.221" y="174.498" fill="#BEECFC" width="11.187" height="17.328"/>
						<rect x="173.259" y="174.498" fill="#BEECFC" width="11.187" height="17.328"/>
					</g>
				</g>
				<g>
					<g>
						<rect x="187.297" y="174.498" fill="#BEECFC" width="11.187" height="17.328"/>
						<rect x="201.335" y="174.498" fill="#BEECFC" width="11.187" height="17.328"/>
					</g>
					<g>
						<rect x="215.373" y="174.498" fill="#BEECFC" width="11.187" height="17.328"/>
						<rect x="229.411" y="174.498" fill="#BEECFC" width="11.187" height="17.328"/>
					</g>
				</g>
			</g>
			<g>
				<rect x="243.997" y="174.498" fill="#BEECFC" width="11.187" height="17.328"/>
				<rect x="258.035" y="174.498" fill="#BEECFC" width="11.187" height="17.328"/>
			</g>
		</g>
		<g>
			<g>
				<g>
					<g>
						<rect x="131.145" y="153.998" fill="#BEECFC" width="11.187" height="17.328"/>
						<rect x="145.183" y="153.998" fill="#BEECFC" width="11.187" height="17.328"/>
					</g>
					<g>
						<rect x="159.221" y="153.998" fill="#BEECFC" width="11.187" height="17.328"/>
						<rect x="173.259" y="153.998" fill="#BEECFC" width="11.187" height="17.328"/>
					</g>
				</g>
				<g>
					<g>
						<rect x="187.297" y="153.998" fill="#BEECFC" width="11.187" height="17.328"/>
						<rect x="201.335" y="153.998" fill="#BEECFC" width="11.187" height="17.328"/>
					</g>
					<g>
						<rect x="215.373" y="153.998" fill="#BEECFC" width="11.187" height="17.328"/>
						<rect x="229.411" y="153.998" fill="#BEECFC" width="11.187" height="17.328"/>
					</g>
				</g>
			</g>
			<g>
				<rect x="243.997" y="153.998" fill="#BEECFC" width="11.187" height="17.328"/>
				<rect x="258.035" y="153.998" fill="#BEECFC" width="11.187" height="17.328"/>
			</g>
		</g>
		<g>
			<g>
				<g>
					<rect x="160.438" y="123.039" fill="#A5E2FD" width="10.854" height="15.331"/>
					<rect x="174.059" y="123.039" fill="#A5E2FD" width="10.854" height="15.331"/>
				</g>
				<g>
					<rect x="187.68" y="123.039" fill="#A5E2FD" width="10.854" height="15.331"/>
					<rect x="201.301" y="123.039" fill="#A5E2FD" width="10.854" height="15.331"/>
				</g>
			</g>
			<g>
				<rect x="214.922" y="123.039" fill="#A5E2FD" width="10.854" height="15.331"/>
				<rect x="228.543" y="123.039" fill="#A5E2FD" width="10.854" height="15.331"/>
			</g>
		</g>
		<g>
			<g>
				<g>
					<rect x="160.438" y="104.095" fill="#A5E2FD" width="10.854" height="15.331"/>
					<rect x="174.059" y="104.095" fill="#A5E2FD" width="10.854" height="15.331"/>
				</g>
				<g>
					<rect x="187.68" y="104.095" fill="#A5E2FD" width="10.854" height="15.331"/>
					<rect x="201.301" y="104.095" fill="#A5E2FD" width="10.854" height="15.331"/>
				</g>
			</g>
			<g>
				<rect x="214.922" y="104.095" fill="#A5E2FD" width="10.854" height="15.331"/>
				<rect x="228.543" y="104.095" fill="#A5E2FD" width="10.854" height="15.331"/>
			</g>
		</g>
		<g>
			<g>
				<g>
					<rect x="160.438" y="85.374" fill="#A5E2FD" width="10.854" height="15.331"/>
					<rect x="174.059" y="85.374" fill="#A5E2FD" width="10.854" height="15.331"/>
				</g>
				<g>
					<rect x="187.68" y="85.374" fill="#A5E2FD" width="10.854" height="15.331"/>
					<rect x="201.301" y="85.374" fill="#A5E2FD" width="10.854" height="15.331"/>
				</g>
			</g>
			<g>
				<rect x="214.922" y="85.374" fill="#A5E2FD" width="10.854" height="15.331"/>
				<rect x="228.543" y="85.374" fill="#A5E2FD" width="10.854" height="15.331"/>
			</g>
		</g>
		<g>
			<g>
				<g>
					<rect x="160.438" y="67.039" fill="#A5E2FD" width="10.854" height="15.331"/>
					<rect x="174.059" y="67.039" fill="#A5E2FD" width="10.854" height="15.331"/>
				</g>
				<g>
					<rect x="187.68" y="67.039" fill="#A5E2FD" width="10.854" height="15.331"/>
					<rect x="201.301" y="67.039" fill="#A5E2FD" width="10.854" height="15.331"/>
				</g>
			</g>
			<g>
				<rect x="214.922" y="67.039" fill="#A5E2FD" width="10.854" height="15.331"/>
				<rect x="228.543" y="67.039" fill="#A5E2FD" width="10.854" height="15.331"/>
			</g>
		</g>
		<rect x="186.395" y="291.748" fill="#A5E2FD" width="26" height="31.437"/>
		<rect x="186.395" y="291.748" fill="#5B5B5F" width="1" height="31.437"/>
		<rect x="211.895" y="291.748" fill="#5B5B5F" width="1" height="31.437"/>
		<rect x="186.395" y="291.748" fill="#5B5B5F" width="25.813" height="1"/>
		<rect x="198.957" y="292.248" fill="#5B5B5F" width="1.25" height="30.937"/>
	</g>
	<g>
		<rect x="88.979" y="288.932" fill="#A38051" width="3.467" height="44.789"/>
		<circle fill="#5DA55D" cx="90.713" cy="284.344" r="15.25"/>
	</g>
	<g>
		<rect x="307.662" y="288.932" fill="#A38051" width="3.466" height="44.789"/>
		<circle fill="#5DA55D" cx="309.395" cy="284.344" r="15.25"/>
	</g>
</g>
</svg>
