<?xml version="1.0" encoding="utf-8"?>
<!-- Generator: Adobe Illustrator 16.0.0, SVG Export Plug-In . SVG Version: 6.00 Build 0)  -->
<!DOCTYPE svg PUBLIC "-//W3C//DTD SVG 1.1//EN" "http://www.w3.org/Graphics/SVG/1.1/DTD/svg11.dtd">
<svg version="1.1" id="Layer_1" xmlns="http://www.w3.org/2000/svg" xmlns:xlink="http://www.w3.org/1999/xlink" x="0px" y="0px"
	 width="400px" height="400px" viewBox="0 0 400 400" enable-background="new 0 0 400 400" xml:space="preserve">
<g>
	<g>
		<path fill-rule="evenodd" clip-rule="evenodd" fill="#4C6173" d="M206.688,161.167c5.021-1.198,12.017-4.041,12.93,0.021
			c1.084,4.83,2.423,16.278,3.827,27.399c0.302,2.398-2.771,3.641-3.536,3.873c-3.42,1.034-6.359,1.357-10.145,1.867l-3.09-33.14
			C206.672,161.18,206.682,161.169,206.688,161.167z"/>
		<path fill-rule="evenodd" clip-rule="evenodd" fill="#4C6173" d="M191.436,161.167c-6.343-1.513-11.384-5.042-12.491-0.061
			c-1.158,5.215-2.428,16.641-3.768,27.313c-0.343,2.733,2.504,3.908,3.426,4.146c3.284,0.853,6.114,1.271,9.757,1.763l3.089-33.14
			C191.45,161.18,191.44,161.169,191.436,161.167z"/>
		<path fill-rule="evenodd" clip-rule="evenodd" fill="#27557D" d="M186.493,193.681l-0.165,0.389
			c7.814,0.989,17.425,1.007,25.262,0.053c-0.072-0.158-0.143-0.306-0.211-0.441H186.493z"/>
		<path fill-rule="evenodd" clip-rule="evenodd" fill="#688096" d="M183.353,193.601c1.733-4.996-2.221-28.394-4.408-32.697
			c1.244-4.416,12.814-5.393,15.895-7.903c1.461,1.286,2.502,1.579,4.159,1.579c1.657,0,2.751-0.335,4.21-1.621
			c2.28,1.856,14.225,3.306,16.268,7.723c-2.326,4.93-6.59,28.402-4.745,32.897C206.951,195.107,191.358,195.216,183.353,193.601z"
			/>
		<polygon fill-rule="evenodd" clip-rule="evenodd" fill="#FFFFFF" points="191.195,155.123 190.825,164.956 199.057,185.854 
			207.172,164.956 206.666,154.853 203.211,152.957 194.84,153 		"/>
		<rect x="194.841" y="149.564" fill-rule="evenodd" clip-rule="evenodd" fill="#D1A886" width="8.222" height="8.518"/>
		<path fill-rule="evenodd" clip-rule="evenodd" fill="#FCB024" d="M200.362,163.348l0.573-1.211l-1.936-4.693l-1.905,4.617
			l0.608,1.287C198.588,163.348,199.476,163.348,200.362,163.348z"/>
		<polygon fill-rule="evenodd" clip-rule="evenodd" fill="#CCCCCC" points="194.839,153 198.999,157.443 196.038,165.36 
			192.379,154.633 		"/>
		<polygon fill-rule="evenodd" clip-rule="evenodd" fill="#27557D" points="192.406,154.418 198.999,185.965 188.145,168.657 
			189.57,165.637 186.474,163.168 190.679,155.369 		"/>
		<polygon fill-rule="evenodd" clip-rule="evenodd" fill="#CCCCCC" points="203.211,152.958 198.999,157.443 201.958,165.36 
			205.67,154.59 		"/>
		<polygon fill-rule="evenodd" clip-rule="evenodd" fill="#FCB024" points="197.702,166.291 200.362,166.291 201.744,179.626 
			198.999,185.965 196.355,179.626 		"/>
		<polygon fill-rule="evenodd" clip-rule="evenodd" fill="#FFFFFF" points="194.84,153 198.999,157.443 195.975,163.403 
			192.38,154.632 		"/>
		<polygon fill-rule="evenodd" clip-rule="evenodd" fill="#3F73A1" points="192.406,154.418 198.999,185.965 189.2,167.278 
			190.825,164.956 187.691,162.519 190.678,155.369 		"/>
		<polygon fill-rule="evenodd" clip-rule="evenodd" fill="#27557D" points="205.751,154.351 198.999,185.965 209.853,168.657 
			208.426,165.637 211.523,163.168 208.198,155.482 		"/>
		<polygon fill-rule="evenodd" clip-rule="evenodd" fill="#3F73A1" points="205.751,154.351 198.999,185.965 208.797,167.278 
			207.172,164.956 210.305,162.519 208.198,155.482 		"/>
		<polygon fill-rule="evenodd" clip-rule="evenodd" fill="#FFFFFF" points="203.211,152.957 198.999,157.443 202.021,163.403 
			205.67,154.589 		"/>
		<path fill-rule="evenodd" clip-rule="evenodd" fill="#FCB024" d="M197.702,163.127h2.66c0.594,1.233,0.548,2.311,0,3.363h-2.66
			C197.154,165.438,197.107,164.36,197.702,163.127z"/>
		<path fill-rule="evenodd" clip-rule="evenodd" fill="#27557D" d="M198.624,194.821c0.071-2.314,0.244-5.067,0.527-9.194
			c0.284,4.128,0.472,6.881,0.557,9.195C199.347,194.824,198.985,194.824,198.624,194.821z"/>
		<polygon fill-rule="evenodd" clip-rule="evenodd" fill="#FFFFFF" points="189.95,155.376 190.971,164.803 199.161,185.593 
			207.234,164.803 208.256,155.376 204.35,152.863 193.857,152.863 		"/>
		<rect x="193.857" y="149.488" fill-rule="evenodd" clip-rule="evenodd" fill="#D1A886" width="10.401" height="8.474"/>
		<path fill-rule="evenodd" clip-rule="evenodd" fill="#F2CAA9" d="M199.103,154.478c4.1,0,7.894-4.688,9.895-10.431
			c0.117,0.121,0.25,0.197,0.396,0.222c0.815,0.135,1.749-1.397,2.087-3.422c0.336-2.026-0.053-3.778-0.867-3.914
			c-0.059-0.01-0.116-0.01-0.176-0.004c0.4-7.115-2.549-13.688-11.334-13.688c-8.792,0-11.74,6.584-11.333,13.706
			c-0.09-0.023-0.179-0.028-0.267-0.014c-0.815,0.136-1.204,1.888-0.868,3.914c0.336,2.024,1.271,3.557,2.086,3.422
			c0.173-0.029,0.328-0.132,0.46-0.295C191.175,149.75,194.986,154.478,199.103,154.478z"/>
		<path fill-rule="evenodd" clip-rule="evenodd" fill="#B55C46" d="M210.439,136.929c0.4-7.115-2.551-13.688-11.336-13.688
			c-8.792,0-11.741,6.584-11.335,13.706c0.71,0.177,1.452,1.479,1.779,3.173c0.573,0.387,0.988,0.161,0.988-1.273
			c0-4.235,0.523-7.987,3.305-8.882c2.646-0.853,3.229,1.017,5.248,1.017c2.019,0,2.656-1.761,5.248-1.017
			c2.69,0.771,3.304,4.646,3.304,8.882c0,1.377,0.383,1.64,0.92,1.318C208.896,138.373,209.694,137.013,210.439,136.929z"/>
		<path fill-rule="evenodd" clip-rule="evenodd" fill="#93B9DB" d="M200.46,163.201l0.569-1.204l-1.926-4.672l-1.895,4.597
			l0.605,1.279C198.695,163.201,199.578,163.201,200.46,163.201z"/>
		<polygon fill-rule="evenodd" clip-rule="evenodd" fill="#CCCCCC" points="193.857,152.863 199.103,157.325 196.159,165.203 
			191.409,154.486 		"/>
		<polygon fill-rule="evenodd" clip-rule="evenodd" fill="#4C6173" points="191.409,154.486 199.103,185.703 188.304,168.484 
			189.723,165.479 186.641,163.023 189.95,155.376 		"/>
		<polygon fill-rule="evenodd" clip-rule="evenodd" fill="#CCCCCC" points="204.35,152.863 199.103,157.325 202.048,165.203 
			206.797,154.486 		"/>
		<polygon fill-rule="evenodd" clip-rule="evenodd" fill="#93B9DB" points="197.813,166.13 200.46,166.13 201.835,179.397 
			199.103,185.703 196.473,179.397 		"/>
		<path fill-rule="evenodd" clip-rule="evenodd" fill="#B55C46" d="M208.547,129.919c-1.135,2.269-10.511,7.743-14.296,8.04
			c1.698-1.579,5.688-6.258,5.179-6.502c-0.565-0.271-6.605,4.443-9.829,5.528C188.943,123.327,198.834,123.764,208.547,129.919z"/>
		<path fill-rule="evenodd" clip-rule="evenodd" fill="#B55C46" d="M203.213,127.652c0.49,2.269,3.773,8.986,5.404,9.283
			C210.249,137.232,210.346,121.777,203.213,127.652z"/>
		<polygon fill-rule="evenodd" clip-rule="evenodd" fill="#FFFFFF" points="193.857,152.863 199.103,157.325 196.094,163.257 
			191.409,154.486 		"/>
		<polygon fill-rule="evenodd" clip-rule="evenodd" fill="#688096" points="191.409,154.486 199.103,185.703 189.354,167.111 
			190.971,164.803 187.853,162.377 189.95,155.376 		"/>
		<polygon fill-rule="evenodd" clip-rule="evenodd" fill="#4C6173" points="206.797,154.486 199.103,185.703 209.901,168.484 
			208.483,165.479 211.564,163.023 208.256,155.376 		"/>
		<polygon fill-rule="evenodd" clip-rule="evenodd" fill="#688096" points="206.797,154.486 199.103,185.703 208.852,167.111 
			207.234,164.803 210.353,162.377 208.256,155.376 		"/>
		<polygon fill-rule="evenodd" clip-rule="evenodd" fill="#FFFFFF" points="204.35,152.863 199.103,157.325 202.111,163.257 
			206.797,154.486 		"/>
		<path fill-rule="evenodd" clip-rule="evenodd" fill="#93B9DB" d="M197.813,162.982h2.647c0.592,1.227,0.545,2.299,0,3.346h-2.647
			C197.268,165.281,197.221,164.209,197.813,162.982z"/>
		<path fill-rule="evenodd" clip-rule="evenodd" fill="#27557D" d="M198.438,194.821c0.434,0.003,0.867,0.004,1.301,0.002
			c0.16-2.239-0.32-8.207-0.65-9.193C198.759,186.42,198.28,192.465,198.438,194.821z"/>
	</g>
	<g>
		<path fill-rule="evenodd" clip-rule="evenodd" fill="#3F73A1" d="M128.985,162.236c4.861-1.161,8.227-4.369,9.111-0.436
			c1.051,4.678,3.406,16.71,4.768,27.479c0.293,2.323-0.337,3.031-1.078,3.256c-3.312,1.003-6.157,1.314-9.823,1.81l-2.991-32.089
			C128.971,162.247,128.979,162.236,128.985,162.236z"/>
		<path fill-rule="evenodd" clip-rule="evenodd" fill="#BA9D3F" d="M135.745,145.675c-0.145,13.405-9.699,18.723-14.217,18.723
			s-15.068-3.524-15.118-17.142c-0.033-9.155,1.351-26.675,20.31-20.912C133.076,125.992,135.89,132.27,135.745,145.675z"/>
		<path fill-rule="evenodd" clip-rule="evenodd" fill="#3F73A1" d="M114.217,162.236c-6.142-1.467-8.186-4.673-9.257,0.151
			c-1.123,5.05-3.335,16.642-4.633,26.976c-0.334,2.647,0.572,3.043,1.465,3.275c3.18,0.825,5.92,1.23,9.448,1.706l2.99-32.089
			C114.231,162.247,114.222,162.236,114.217,162.236z"/>
		<path fill-rule="evenodd" clip-rule="evenodd" fill="#27557D" d="M109.431,193.717l-0.16,0.377
			c7.566,0.957,16.872,0.974,24.459,0.051c-0.069-0.153-0.138-0.296-0.204-0.428H109.431z"/>
		<path fill-rule="evenodd" clip-rule="evenodd" fill="#5A8FBD" d="M109.022,194.062c2.147-6.193,0.907-8.016-1.909-14.766
			c-2.868-6.882,2.955-10.564-1.374-19.083c3.835-2.459,8.79-3.455,11.772-5.885c1.414,1.244,2.422,1.528,4.026,1.528
			s2.665-0.325,4.078-1.569c2.207,1.797,7.86,3.311,11.872,5.926c-4.125,8.743,1.463,10.183-1.375,19.083
			c-2.167,6.795-5.544,7.172-2.393,14.85C126.05,195.077,116.629,195.05,109.022,194.062z"/>
		<polygon fill-rule="evenodd" clip-rule="evenodd" fill="#FFFFFF" points="113.984,156.383 113.625,165.905 121.596,186.138 
			129.453,165.905 128.965,156.121 125.618,154.286 117.513,154.328 		"/>
		<rect x="117.515" y="151.002" fill-rule="evenodd" clip-rule="evenodd" fill="#D1A886" width="7.96" height="8.246"/>
		<path fill-rule="evenodd" clip-rule="evenodd" fill="#F2CAA9" d="M121.539,155.856c3.989,0,7.683-4.562,9.63-10.149
			c0.114,0.117,0.242,0.191,0.384,0.215c0.794,0.132,1.703-1.359,2.031-3.33c0.327-1.972-0.05-3.677-0.845-3.809
			c-0.055-0.01-0.113-0.01-0.17-0.003c0.389-6.926-2.481-13.322-11.031-13.322c-8.556,0-11.424,6.406-11.03,13.338
			c-0.086-0.022-0.173-0.026-0.259-0.013c-0.793,0.132-1.171,1.837-0.845,3.809c0.328,1.971,1.237,3.462,2.031,3.33
			c0.169-0.028,0.319-0.128,0.448-0.287C113.824,151.257,117.533,155.856,121.539,155.856z"/>
		<path fill-rule="evenodd" clip-rule="evenodd" fill="#FC8D25" d="M122.86,164.347l0.554-1.173l-1.875-4.545l-1.844,4.473
			l0.588,1.245C121.142,164.347,122,164.347,122.86,164.347z"/>
		<polygon fill-rule="evenodd" clip-rule="evenodd" fill="#CCCCCC" points="117.512,154.328 121.539,158.629 118.673,166.295 
			115.13,155.908 		"/>
		<polygon fill-rule="evenodd" clip-rule="evenodd" fill="#3F73A1" points="115.156,155.7 121.539,186.245 111.03,169.488 
			112.411,166.563 109.412,164.173 113.482,156.621 		"/>
		<polygon fill-rule="evenodd" clip-rule="evenodd" fill="#CCCCCC" points="125.618,154.287 121.539,158.629 124.405,166.295 
			128,155.867 		"/>
		<polygon fill-rule="evenodd" clip-rule="evenodd" fill="#FC8D25" points="120.284,167.196 122.86,167.196 124.199,180.108 
			121.539,186.245 118.98,180.108 		"/>
		<polygon fill-rule="evenodd" clip-rule="evenodd" fill="#FFFFFF" points="117.513,154.328 121.539,158.629 118.611,164.401 
			115.131,155.907 		"/>
		<polygon fill-rule="evenodd" clip-rule="evenodd" fill="#5A8FBD" points="115.156,155.7 121.539,186.245 112.052,168.151 
			113.625,165.905 110.591,163.544 113.482,156.621 		"/>
		<polygon fill-rule="evenodd" clip-rule="evenodd" fill="#3F73A1" points="128.078,155.636 121.539,186.245 132.048,169.488 
			130.668,166.563 133.667,164.173 130.447,156.73 		"/>
		<polygon fill-rule="evenodd" clip-rule="evenodd" fill="#5A8FBD" points="128.078,155.636 121.539,186.245 131.027,168.151 
			129.453,165.905 132.487,163.544 130.447,156.73 		"/>
		<polygon fill-rule="evenodd" clip-rule="evenodd" fill="#FFFFFF" points="125.618,154.285 121.539,158.629 124.467,164.401 
			128,155.866 		"/>
		<path fill-rule="evenodd" clip-rule="evenodd" fill="#FC8D25" d="M120.284,164.133h2.576c0.575,1.194,0.531,2.238,0,3.257h-2.576
			C119.753,166.371,119.708,165.327,120.284,164.133z"/>
		<path fill-rule="evenodd" clip-rule="evenodd" fill="#3F73A1" d="M121.177,194.822c0.068-2.242,0.237-4.907,0.512-8.902
			c0.273,3.996,0.456,6.662,0.538,8.902C121.876,194.824,121.526,194.823,121.177,194.822z"/>
		
			<ellipse transform="matrix(0.2168 -0.9762 0.9762 0.2168 -36.0804 240.9436)" fill-rule="evenodd" clip-rule="evenodd" fill="#F2CAA9" cx="132.119" cy="142.958" rx="3.013" ry="1.428"/>
		<path fill-rule="evenodd" clip-rule="evenodd" fill="#BA9D3F" d="M132.727,138.78c0.397-6.926-2.527-13.322-11.232-13.322
			c-8.711,0-11.633,6.406-11.232,13.336c0.705,0.174,1.438,1.441,1.762,3.091c0.568,0.376,0.979,0.156,0.979-1.24
			c0-4.121,0.519-7.773,3.275-8.645c2.622-0.828,3.2,0.99,5.2,0.99c2.001,0,2.632-1.713,5.2-0.99
			c2.666,0.752,3.275,4.523,3.275,8.645c0,1.34,0.379,1.597,0.912,1.283C131.197,140.187,131.989,138.86,132.727,138.78z"/>
		<path fill-rule="evenodd" clip-rule="evenodd" fill="#BA9D3F" d="M132.035,129.042c-0.524,3.885-19.213,12.583-24.01,13.242
			c-1.489-19.972,10.791-9.023,11.99-13.058C120.3,128.265,132.279,129.878,132.035,129.042z"/>
		<path fill-rule="evenodd" clip-rule="evenodd" fill="#BA9D3F" d="M123.325,125.836c-0.312,3.908,6.108,15.256,10.657,16.917
			c1.715-14.296-1.996-13.499-4.532-14.658C128.538,127.678,122.91,126.602,123.325,125.836z"/>
	</g>
	<g>
		<path fill-rule="evenodd" clip-rule="evenodd" fill="#6F7478" d="M165.685,188.133c5.659-1.351,13.54-4.553,14.568,0.024
			c1.222,5.441,2.731,18.342,4.313,30.873c0.34,2.702-3.123,4.102-3.984,4.363c-3.854,1.165-7.165,1.529-11.431,2.104l-3.481-37.341
			C165.669,188.146,165.68,188.135,165.685,188.133z"/>
		<path fill-rule="evenodd" clip-rule="evenodd" fill="#6F7478" d="M148.5,188.133c-7.147-1.704-12.826-5.681-14.074-0.068
			c-1.305,5.876-2.736,18.75-4.245,30.774c-0.387,3.08,2.821,4.404,3.86,4.673c3.7,0.961,6.889,1.433,10.994,1.986l3.481-37.341
			C148.517,188.146,148.505,188.134,148.5,188.133z"/>
		<path fill-rule="evenodd" clip-rule="evenodd" fill="#27557D" d="M142.931,224.769l-0.186,0.438
			c8.804,1.114,19.633,1.133,28.464,0.059c-0.082-0.179-0.161-0.345-0.238-0.497H142.931z"/>
		<path fill-rule="evenodd" clip-rule="evenodd" fill="#969DA3" d="M139.394,224.679c1.952-5.631-2.504-31.994-4.968-36.843
			c1.401-4.977,14.438-6.077,17.909-8.905c1.646,1.448,2.819,1.779,4.687,1.779c1.866,0,3.1-0.378,4.745-1.827
			c2.568,2.093,16.026,3.725,18.329,8.702c-2.62,5.555-7.426,32.003-5.346,37.068C165.983,226.377,148.413,226.498,139.394,224.679z
			"/>
		<polygon fill-rule="evenodd" clip-rule="evenodd" fill="#FFFFFF" points="148.229,181.322 147.812,192.403 157.087,215.948 
			166.23,192.403 165.662,181.018 161.768,178.882 152.336,178.931 		"/>
		<rect x="152.337" y="175.06" fill-rule="evenodd" clip-rule="evenodd" fill="#D1A886" width="9.264" height="9.597"/>
		<path fill-rule="evenodd" clip-rule="evenodd" fill="#FCB024" d="M158.558,190.589l0.646-1.363l-2.182-5.289l-2.147,5.204
			l0.686,1.448C156.559,190.589,157.559,190.589,158.558,190.589z"/>
		<polygon fill-rule="evenodd" clip-rule="evenodd" fill="#CCCCCC" points="152.335,178.931 157.021,183.937 153.686,192.857 
			149.563,180.771 		"/>
		<polygon fill-rule="evenodd" clip-rule="evenodd" fill="#CCCCCC" points="161.768,178.883 157.021,183.937 160.356,192.857 
			164.539,180.723 		"/>
		<polygon fill-rule="evenodd" clip-rule="evenodd" fill="#FCB024" points="155.56,193.906 158.558,193.906 160.116,208.932 
			157.021,216.073 154.043,208.932 		"/>
		<polygon fill-rule="evenodd" clip-rule="evenodd" fill="#FFFFFF" points="152.336,178.931 157.021,183.937 153.614,190.652 
			149.563,180.77 		"/>
		<polygon fill-rule="evenodd" clip-rule="evenodd" fill="#3F73A1" points="149.593,180.527 157.021,216.073 145.98,195.018 
			147.812,192.403 144.28,189.655 147.646,181.6 		"/>
		<polygon fill-rule="evenodd" clip-rule="evenodd" fill="#3F73A1" points="164.63,180.452 157.021,216.073 168.062,195.018 
			166.23,192.403 169.762,189.655 167.387,181.728 		"/>
		<polygon fill-rule="evenodd" clip-rule="evenodd" fill="#FFFFFF" points="161.768,178.881 157.021,183.937 160.429,190.652 
			164.539,180.721 		"/>
		<path fill-rule="evenodd" clip-rule="evenodd" fill="#FCB024" d="M155.56,190.342h2.998c0.67,1.389,0.617,2.604,0,3.789h-2.998
			C154.943,192.945,154.891,191.73,155.56,190.342z"/>
		<path fill-rule="evenodd" clip-rule="evenodd" fill="#27557D" d="M156.6,226.054c0.079-2.608,0.276-5.71,0.594-10.359
			c0.319,4.65,0.531,7.753,0.626,10.36C157.414,226.057,157.006,226.056,156.6,226.054z"/>
		<polygon fill-rule="evenodd" clip-rule="evenodd" fill="#FFFFFF" points="146.826,181.607 147.977,192.229 157.205,215.654 
			166.302,192.229 167.453,181.607 163.051,178.776 151.228,178.776 		"/>
		<rect x="151.228" y="174.974" fill-rule="evenodd" clip-rule="evenodd" fill="#D1A886" width="11.719" height="9.548"/>
		<path fill-rule="evenodd" clip-rule="evenodd" fill="#F2CAA9" d="M157.139,180.595c4.619,0,8.895-5.282,11.15-11.752
			c0.132,0.136,0.281,0.222,0.445,0.249c0.919,0.153,1.972-1.573,2.352-3.855c0.378-2.283-0.059-4.258-0.977-4.409
			c-0.065-0.012-0.131-0.013-0.197-0.005c0.45-8.018-2.873-15.424-12.772-15.424c-9.907,0-13.228,7.418-12.771,15.442
			c-0.101-0.025-0.201-0.03-0.3-0.014c-0.918,0.151-1.356,2.126-0.978,4.409c0.379,2.282,1.431,4.009,2.351,3.855
			c0.196-0.033,0.37-0.148,0.519-0.332C148.207,175.269,152.5,180.595,157.139,180.595z"/>
		<path fill-rule="evenodd" clip-rule="evenodd" fill="#6B451D" d="M169.913,160.822c0.451-8.018-2.874-15.424-12.773-15.424
			c-9.907,0-13.229,7.418-12.772,15.441c0.801,0.2,1.636,1.668,2.005,3.577c0.646,0.435,1.114,0.182,1.114-1.436
			c0-4.771,0.589-9,3.723-10.009c2.983-0.959,3.638,1.146,5.914,1.146s2.993-1.983,5.913-1.146c3.031,0.87,3.723,5.237,3.723,10.009
			c0,1.552,0.431,1.848,1.037,1.485C168.173,162.45,169.074,160.916,169.913,160.822z"/>
		<path fill-rule="evenodd" clip-rule="evenodd" fill="#27557D" d="M158.668,190.425l0.643-1.357l-2.171-5.263l-2.135,5.178
			l0.682,1.442C156.68,190.425,157.674,190.425,158.668,190.425z"/>
		<polygon fill-rule="evenodd" clip-rule="evenodd" fill="#CCCCCC" points="151.228,178.776 157.139,183.805 153.821,192.681 
			148.47,180.605 		"/>
		<polygon fill-rule="evenodd" clip-rule="evenodd" fill="#6F7478" points="148.47,180.605 157.139,215.779 144.971,196.378 
			146.57,192.992 143.098,190.224 146.826,181.607 		"/>
		<polygon fill-rule="evenodd" clip-rule="evenodd" fill="#CCCCCC" points="163.051,178.776 157.139,183.805 160.458,192.681 
			165.809,180.605 		"/>
		<polygon fill-rule="evenodd" clip-rule="evenodd" fill="#27557D" points="155.686,193.725 158.668,193.725 160.218,208.675 
			157.139,215.779 154.176,208.675 		"/>
		<polygon fill-rule="evenodd" clip-rule="evenodd" fill="#FFFFFF" points="151.228,178.776 157.139,183.805 153.75,190.488 
			148.47,180.605 		"/>
		<polygon fill-rule="evenodd" clip-rule="evenodd" fill="#969DA3" points="148.47,180.605 157.139,215.779 146.154,194.831 
			147.977,192.229 144.462,189.496 146.826,181.607 		"/>
		<polygon fill-rule="evenodd" clip-rule="evenodd" fill="#6F7478" points="165.809,180.605 157.139,215.779 169.307,196.378 
			167.708,192.992 171.18,190.224 167.453,181.607 		"/>
		<polygon fill-rule="evenodd" clip-rule="evenodd" fill="#969DA3" points="165.809,180.605 157.139,215.779 168.124,194.831 
			166.302,192.229 169.815,189.496 167.453,181.607 		"/>
		<polygon fill-rule="evenodd" clip-rule="evenodd" fill="#FFFFFF" points="163.051,178.776 157.139,183.805 160.529,190.488 
			165.809,180.605 		"/>
		<path fill-rule="evenodd" clip-rule="evenodd" fill="#27557D" d="M155.686,190.179h2.982c0.667,1.381,0.615,2.589,0,3.77h-2.982
			C155.071,192.768,155.019,191.56,155.686,190.179z"/>
		<path fill-rule="evenodd" clip-rule="evenodd" fill="#6F7478" d="M156.39,226.054c0.489,0.003,0.978,0.005,1.466,0.002
			c0.18-2.523-0.361-9.248-0.733-10.358C156.751,216.587,156.212,223.398,156.39,226.054z"/>
	</g>
	<g>
		<path fill-rule="evenodd" clip-rule="evenodd" fill="#27557D" d="M283.641,161.167c5.021-1.198,12.017-4.041,12.929,0.021
			c1.085,4.83,2.424,16.278,3.827,27.399c0.304,2.398-2.77,3.641-3.535,3.873c-3.42,1.034-6.358,1.357-10.145,1.867l-3.09-33.14
			C283.625,161.18,283.635,161.169,283.641,161.167z"/>
		<path fill-rule="evenodd" clip-rule="evenodd" fill="#27557D" d="M268.389,161.167c-6.342-1.513-11.383-5.042-12.49-0.061
			c-1.158,5.215-2.428,16.641-3.768,27.313c-0.344,2.733,2.503,3.908,3.425,4.146c3.284,0.853,6.114,1.271,9.758,1.763l3.09-33.14
			C268.404,161.18,268.394,161.169,268.389,161.167z"/>
		<path fill-rule="evenodd" clip-rule="evenodd" fill="#27557D" d="M263.447,193.681l-0.166,0.389
			c7.814,0.989,17.425,1.007,25.262,0.053c-0.072-0.158-0.143-0.306-0.211-0.441H263.447z"/>
		<path fill-rule="evenodd" clip-rule="evenodd" fill="#3F73A1" d="M260.307,193.601c1.732-4.996-2.222-28.394-4.408-32.697
			c1.243-4.416,12.814-5.393,15.895-7.903c1.461,1.286,2.502,1.579,4.158,1.579c1.658,0,2.752-0.335,4.211-1.621
			c2.28,1.856,14.225,3.306,16.268,7.723c-2.326,4.93-6.59,28.402-4.744,32.897C283.905,195.107,268.313,195.216,260.307,193.601z"
			/>
		<polygon fill-rule="evenodd" clip-rule="evenodd" fill="#FFFFFF" points="268.148,155.123 267.779,164.956 276.01,185.854 
			284.125,164.956 283.621,154.853 280.164,152.957 271.793,153 		"/>
		<rect x="271.795" y="149.564" fill-rule="evenodd" clip-rule="evenodd" fill="#D1A886" width="8.223" height="8.518"/>
		<path fill-rule="evenodd" clip-rule="evenodd" fill="#FCB024" d="M277.315,163.348l0.573-1.211l-1.938-4.693l-1.904,4.617
			l0.607,1.287C275.541,163.348,276.43,163.348,277.315,163.348z"/>
		<polygon fill-rule="evenodd" clip-rule="evenodd" fill="#CCCCCC" points="271.793,153 275.951,157.443 272.99,165.36 
			269.332,154.633 		"/>
		<polygon fill-rule="evenodd" clip-rule="evenodd" fill="#27557D" points="269.359,154.418 275.951,185.965 265.098,168.657 
			266.523,165.637 263.428,163.168 267.632,155.369 		"/>
		<polygon fill-rule="evenodd" clip-rule="evenodd" fill="#CCCCCC" points="280.164,152.958 275.951,157.443 278.912,165.36 
			282.623,154.59 		"/>
		<polygon fill-rule="evenodd" clip-rule="evenodd" fill="#FCB024" points="274.654,166.291 277.315,166.291 278.697,179.626 
			275.951,185.965 273.309,179.626 		"/>
		<polygon fill-rule="evenodd" clip-rule="evenodd" fill="#FFFFFF" points="271.793,153 275.951,157.443 272.928,163.403 
			269.334,154.632 		"/>
		<polygon fill-rule="evenodd" clip-rule="evenodd" fill="#3F73A1" points="269.359,154.418 275.951,185.965 266.152,167.278 
			267.779,164.956 264.645,162.519 267.631,155.369 		"/>
		<polygon fill-rule="evenodd" clip-rule="evenodd" fill="#27557D" points="282.705,154.351 275.951,185.965 286.805,168.657 
			285.379,165.637 288.477,163.168 285.151,155.482 		"/>
		<polygon fill-rule="evenodd" clip-rule="evenodd" fill="#3F73A1" points="282.705,154.351 275.951,185.965 285.75,167.278 
			284.125,164.956 287.259,162.519 285.151,155.482 		"/>
		<polygon fill-rule="evenodd" clip-rule="evenodd" fill="#FFFFFF" points="280.164,152.957 275.951,157.443 278.975,163.403 
			282.623,154.589 		"/>
		<path fill-rule="evenodd" clip-rule="evenodd" fill="#FCB024" d="M274.654,163.127h2.661c0.595,1.233,0.548,2.311,0,3.363h-2.661
			C274.107,165.438,274.061,164.36,274.654,163.127z"/>
		<path fill-rule="evenodd" clip-rule="evenodd" fill="#27557D" d="M275.576,194.821c0.071-2.314,0.246-5.067,0.528-9.194
			c0.284,4.128,0.472,6.881,0.557,9.195C276.301,194.824,275.938,194.824,275.576,194.821z"/>
		<polygon fill-rule="evenodd" clip-rule="evenodd" fill="#FFFFFF" points="266.902,155.376 267.924,164.803 276.115,185.593 
			284.188,164.803 285.21,155.376 281.303,152.863 270.811,152.863 		"/>
		<rect x="270.811" y="149.488" fill-rule="evenodd" clip-rule="evenodd" fill="#D1A886" width="10.4" height="8.474"/>
		<path fill-rule="evenodd" clip-rule="evenodd" fill="#F2CAA9" d="M276.057,154.478c4.1,0,7.895-4.688,9.895-10.431
			c0.117,0.121,0.25,0.197,0.396,0.222c0.815,0.135,1.751-1.397,2.087-3.422c0.336-2.026-0.053-3.778-0.867-3.914
			c-0.058-0.01-0.116-0.01-0.176-0.004c0.4-7.115-2.549-13.688-11.334-13.688c-8.793,0-11.74,6.584-11.334,13.706
			c-0.09-0.023-0.18-0.028-0.268-0.014c-0.814,0.136-1.203,1.888-0.867,3.914c0.336,2.024,1.271,3.557,2.086,3.422
			c0.174-0.029,0.328-0.132,0.461-0.295C268.129,149.75,271.939,154.478,276.057,154.478z"/>
		<path fill-rule="evenodd" clip-rule="evenodd" fill="#3B1911" d="M287.393,136.929c0.4-7.115-2.551-13.688-11.336-13.688
			c-8.793,0-11.741,6.584-11.336,13.706c0.711,0.177,1.452,1.479,1.779,3.173c0.573,0.387,0.988,0.161,0.988-1.273
			c0-4.235,0.523-7.987,3.305-8.882c2.646-0.853,3.229,1.017,5.248,1.017s2.656-1.761,5.248-1.017
			c2.69,0.771,3.305,4.646,3.305,8.882c0,1.377,0.382,1.64,0.919,1.318C285.849,138.373,286.647,137.013,287.393,136.929z"/>
		<path fill-rule="evenodd" clip-rule="evenodd" fill="#FC8D25" d="M277.413,163.201l0.569-1.204l-1.926-4.672l-1.896,4.597
			l0.604,1.279C275.648,163.201,276.531,163.201,277.413,163.201z"/>
		<polygon fill-rule="evenodd" clip-rule="evenodd" fill="#CCCCCC" points="270.811,152.863 276.057,157.325 273.111,165.203 
			268.362,154.486 		"/>
		<polygon fill-rule="evenodd" clip-rule="evenodd" fill="#27557D" points="268.362,154.486 276.057,185.703 265.258,168.484 
			266.676,165.479 263.594,163.023 266.902,155.376 		"/>
		<polygon fill-rule="evenodd" clip-rule="evenodd" fill="#CCCCCC" points="281.303,152.863 276.057,157.325 279.001,165.203 
			283.75,154.486 		"/>
		<polygon fill-rule="evenodd" clip-rule="evenodd" fill="#FC8D25" points="274.766,166.13 277.413,166.13 278.788,179.397 
			276.057,185.703 273.427,179.397 		"/>
		<path fill-rule="evenodd" clip-rule="evenodd" fill="#3B1911" d="M283.965,127.871c-1.134,2.269-11.792,4.16-15.576,4.457
			C264.604,132.625,267.42,121.996,283.965,127.871z"/>
		<path fill-rule="evenodd" clip-rule="evenodd" fill="#3B1911" d="M278.526,127.871c0.489,2.269,6.181,7.231,7.813,7.528
			S285.658,121.996,278.526,127.871z"/>
		<polygon fill-rule="evenodd" clip-rule="evenodd" fill="#FFFFFF" points="270.811,152.863 276.057,157.325 273.047,163.257 
			268.362,154.486 		"/>
		<polygon fill-rule="evenodd" clip-rule="evenodd" fill="#3F73A1" points="268.362,154.486 276.057,185.703 266.307,167.111 
			267.924,164.803 264.807,162.377 266.902,155.376 		"/>
		<polygon fill-rule="evenodd" clip-rule="evenodd" fill="#27557D" points="283.75,154.486 276.057,185.703 286.855,168.484 
			285.437,165.479 288.518,163.023 285.21,155.376 		"/>
		<polygon fill-rule="evenodd" clip-rule="evenodd" fill="#3F73A1" points="283.75,154.486 276.057,185.703 285.805,167.111 
			284.188,164.803 287.306,162.377 285.21,155.376 		"/>
		<polygon fill-rule="evenodd" clip-rule="evenodd" fill="#FFFFFF" points="281.303,152.863 276.057,157.325 279.064,163.257 
			283.75,154.486 		"/>
		<path fill-rule="evenodd" clip-rule="evenodd" fill="#FC8D25" d="M274.766,162.982h2.647c0.592,1.227,0.545,2.299,0,3.346h-2.647
			C274.221,165.281,274.175,164.209,274.766,162.982z"/>
		<path fill-rule="evenodd" clip-rule="evenodd" fill="#27557D" d="M275.391,194.821c0.435,0.003,0.868,0.004,1.301,0.002
			c0.16-2.239-0.32-8.207-0.65-9.193C275.711,186.42,275.233,192.465,275.391,194.821z"/>
	</g>
	<g>
		<path fill-rule="evenodd" clip-rule="evenodd" fill="#4C6173" d="M244.724,189.168c5.504-1.313,9.313-4.945,10.313-0.492
			c1.19,5.295,3.856,18.915,5.396,31.104c0.332,2.63-0.381,3.432-1.22,3.687c-3.749,1.135-6.97,1.487-11.118,2.047l-3.387-36.321
			C244.708,189.181,244.718,189.17,244.724,189.168z"/>
		<path fill-rule="evenodd" clip-rule="evenodd" fill="#6E4D28" d="M251.555,170.148c-3.394,16.069-10.157,44.705-15.271,44.705
			c-5.115,0-15.144-30.781-17.113-42.642c-1.698-10.224,1.529-30.195,22.99-23.672C249.355,148.143,254.5,156.2,251.555,170.148z"/>
		<path fill-rule="evenodd" clip-rule="evenodd" fill="#4C6173" d="M228.008,189.168c-6.953-1.658-9.266-5.288-10.479,0.172
			c-1.271,5.717-3.774,18.837-5.245,30.534c-0.377,2.998,0.648,3.445,1.659,3.707c3.599,0.935,6.701,1.394,10.694,1.933
			l3.386-36.321C228.023,189.181,228.014,189.169,228.008,189.168z"/>
		<path fill-rule="evenodd" clip-rule="evenodd" fill="#27557D" d="M222.59,224.804l-0.181,0.426
			c8.563,1.084,19.097,1.103,27.688,0.058c-0.079-0.174-0.156-0.335-0.231-0.483H222.59z"/>
		<path fill-rule="evenodd" clip-rule="evenodd" fill="#688096" d="M222.128,225.192c2.431-7.01,1.026-9.073-2.16-16.713
			c-3.247-7.79,3.343-11.959-1.556-21.601c4.342-2.784,9.949-3.911,13.326-6.662c1.602,1.409,2.742,1.73,4.559,1.73
			c1.814,0,3.015-0.368,4.615-1.777c2.498,2.035,8.896,3.749,13.438,6.709c-4.67,9.896,1.656,11.525-1.557,21.601
			c-2.453,7.692-6.275,8.118-2.709,16.809C241.402,226.343,230.738,226.312,222.128,225.192z"/>
		<polygon fill-rule="evenodd" clip-rule="evenodd" fill="#FFFFFF" points="227.744,182.543 227.338,193.321 236.36,216.225 
			245.254,193.321 244.701,182.247 240.912,180.17 231.738,180.217 		"/>
		<rect x="231.74" y="176.452" fill-rule="evenodd" clip-rule="evenodd" fill="#D1A886" width="9.012" height="9.334"/>
		<path fill-rule="evenodd" clip-rule="evenodd" fill="#F2CAA9" d="M236.297,181.948c4.515,0,8.695-5.164,10.898-11.49
			c0.131,0.133,0.275,0.217,0.437,0.244c0.898,0.148,1.928-1.539,2.299-3.771c0.37-2.231-0.058-4.161-0.956-4.311
			c-0.063-0.01-0.127-0.011-0.192-0.004c0.44-7.838-2.81-15.079-12.485-15.079c-9.686,0-12.933,7.251-12.486,15.098
			c-0.098-0.025-0.197-0.03-0.293-0.015c-0.898,0.149-1.326,2.079-0.957,4.311c0.371,2.231,1.4,3.919,2.299,3.771
			c0.191-0.032,0.361-0.145,0.507-0.324C227.563,176.739,231.761,181.948,236.297,181.948z"/>
		<path fill-rule="evenodd" clip-rule="evenodd" fill="#93B9DB" d="M237.791,191.557l0.627-1.326l-2.121-5.145l-2.088,5.062
			l0.666,1.409C235.846,191.557,236.818,191.557,237.791,191.557z"/>
		<polygon fill-rule="evenodd" clip-rule="evenodd" fill="#CCCCCC" points="231.737,180.217 236.297,185.086 233.052,193.764 
			229.041,182.006 		"/>
		<polygon fill-rule="evenodd" clip-rule="evenodd" fill="#4C6173" points="229.07,181.771 236.297,216.346 224.4,197.378 
			225.963,194.067 222.569,191.361 227.176,182.813 		"/>
		<polygon fill-rule="evenodd" clip-rule="evenodd" fill="#CCCCCC" points="240.912,180.17 236.297,185.086 239.54,193.764 
			243.609,181.96 		"/>
		<polygon fill-rule="evenodd" clip-rule="evenodd" fill="#93B9DB" points="234.875,194.783 237.791,194.783 239.307,209.399 
			236.297,216.346 233.398,209.399 		"/>
		<polygon fill-rule="evenodd" clip-rule="evenodd" fill="#FFFFFF" points="231.738,180.216 236.297,185.086 232.982,191.618 
			229.043,182.005 		"/>
		<polygon fill-rule="evenodd" clip-rule="evenodd" fill="#688096" points="229.07,181.771 236.297,216.346 225.557,195.865 
			227.338,193.321 223.903,190.649 227.176,182.813 		"/>
		<polygon fill-rule="evenodd" clip-rule="evenodd" fill="#4C6173" points="243.697,181.697 236.297,216.346 248.191,197.378 
			246.629,194.067 250.023,191.361 246.379,182.937 		"/>
		<polygon fill-rule="evenodd" clip-rule="evenodd" fill="#688096" points="243.697,181.697 236.297,216.346 247.035,195.865 
			245.254,193.321 248.688,190.649 246.379,182.937 		"/>
		<polygon fill-rule="evenodd" clip-rule="evenodd" fill="#FFFFFF" points="240.912,180.17 236.297,185.086 239.609,191.618 
			243.609,181.958 		"/>
		<path fill-rule="evenodd" clip-rule="evenodd" fill="#93B9DB" d="M234.875,191.316h2.916c0.65,1.351,0.6,2.532,0,3.686h-2.916
			C234.273,193.849,234.224,192.667,234.875,191.316z"/>
		<path fill-rule="evenodd" clip-rule="evenodd" fill="#4C6173" d="M235.886,226.054c0.077-2.537,0.269-5.554,0.579-10.077
			c0.31,4.524,0.516,7.542,0.608,10.078C236.678,226.057,236.282,226.056,235.886,226.054z"/>
		
			<ellipse transform="matrix(0.2171 -0.9762 0.9762 0.2171 31.0197 373.3701)" fill-rule="evenodd" clip-rule="evenodd" fill="#F2CAA9" cx="248.271" cy="167.347" rx="3.41" ry="1.616"/>
		<path fill-rule="evenodd" clip-rule="evenodd" fill="#6E4D28" d="M248.959,162.617c0.451-7.838-2.859-15.079-12.713-15.079
			c-9.861,0-13.168,7.251-12.715,15.096c0.799,0.196,1.629,1.631,1.996,3.498c0.643,0.425,1.107,0.177,1.107-1.403
			c0-4.665,0.588-8.799,3.708-9.785c2.968-0.938,3.621,1.12,5.886,1.12c2.266,0,2.979-1.938,5.886-1.12
			c3.018,0.851,3.706,5.12,3.706,9.785c0,1.516,0.43,1.807,1.032,1.452C247.229,164.209,248.125,162.709,248.959,162.617z"/>
		<path fill-rule="evenodd" clip-rule="evenodd" fill="#6E4D28" d="M245.234,150.19c0.627,4.393-6.277,13.965-11.299,16.163
			c3.206-1.78,5.311-8.394,4.537-13.18C238.291,152.052,245.757,151.026,245.234,150.19z"/>
		<path fill-rule="evenodd" clip-rule="evenodd" fill="#6E4D28" d="M241.888,150.774c-0.593,4.397-15.459,18.072-20.89,18.818
			c-1.686-22.608,12.214-13.222,13.572-17.79C234.894,150.714,242.164,151.721,241.888,150.774z"/>
		<path fill-rule="evenodd" clip-rule="evenodd" fill="#6E4D28" d="M238.317,147.966c-0.353,4.425,6.914,20.277,12.063,22.156
			c1.942-16.182-2.259-18.286-5.13-19.6C244.218,150.051,237.848,148.833,238.317,147.966z"/>
	</g>
	<g>
		<path fill-rule="evenodd" clip-rule="evenodd" fill="#27557D" d="M210.125,229.362c7.359-1.757,17.612-5.924,18.949,0.03
			c1.591,7.078,3.553,23.859,5.611,40.159c0.443,3.516-4.062,5.337-5.183,5.677c-5.015,1.517-9.32,1.989-14.87,2.738l-4.527-48.574
			C210.104,229.379,210.117,229.363,210.125,229.362z"/>
		<path fill-rule="evenodd" clip-rule="evenodd" fill="#27557D" d="M187.77,229.362c-9.296-2.218-16.685-7.391-18.307-0.09
			c-1.699,7.644-3.56,24.39-5.522,40.031c-0.503,4.008,3.67,5.729,5.02,6.079c4.813,1.25,8.961,1.862,14.302,2.584l4.528-48.574
			C187.792,229.379,187.777,229.362,187.77,229.362z"/>
		<path fill-rule="evenodd" clip-rule="evenodd" fill="#27557D" d="M180.525,277.017l-0.242,0.571
			c11.453,1.449,25.539,1.474,37.027,0.075c-0.106-0.232-0.21-0.447-0.31-0.646H180.525z"/>
		<path fill-rule="evenodd" clip-rule="evenodd" fill="#3F73A1" d="M175.924,276.9c2.541-7.324-3.257-41.618-6.461-47.925
			c1.821-6.474,18.781-7.905,23.296-11.584c2.142,1.884,3.667,2.313,6.096,2.313c2.428,0,4.033-0.491,6.172-2.377
			c3.34,2.723,20.848,4.846,23.842,11.321c-3.408,7.225-9.659,41.628-6.954,48.219C210.514,279.109,187.656,279.268,175.924,276.9z"
			/>
		<polygon fill-rule="evenodd" clip-rule="evenodd" fill="#FFFFFF" points="187.417,220.502 186.875,234.915 198.94,265.544 
			210.834,234.915 210.094,220.105 205.027,217.328 192.76,217.392 		"/>
		<rect x="192.761" y="212.355" fill-rule="evenodd" clip-rule="evenodd" fill="#D1A886" width="12.051" height="12.483"/>
		<path fill-rule="evenodd" clip-rule="evenodd" fill="#FCB024" d="M200.853,232.557l0.839-1.774l-2.837-6.879l-2.792,6.769
			l0.891,1.885C198.254,232.557,199.554,232.557,200.853,232.557z"/>
		<polygon fill-rule="evenodd" clip-rule="evenodd" fill="#CCCCCC" points="192.759,217.392 198.855,223.903 194.516,235.506 
			189.152,219.783 		"/>
		<polygon fill-rule="evenodd" clip-rule="evenodd" fill="#27557D" points="189.191,219.47 198.855,265.706 182.946,240.34 
			185.036,235.913 180.496,232.294 186.66,220.862 		"/>
		<polygon fill-rule="evenodd" clip-rule="evenodd" fill="#CCCCCC" points="205.027,217.328 198.855,223.903 203.193,235.506 
			208.633,219.722 		"/>
		<polygon fill-rule="evenodd" clip-rule="evenodd" fill="#FCB024" points="196.954,236.872 200.853,236.872 202.88,256.417 
			198.855,265.706 194.981,256.417 		"/>
		<polygon fill-rule="evenodd" clip-rule="evenodd" fill="#FFFFFF" points="192.76,217.39 198.855,223.903 194.422,232.639 
			189.154,219.783 		"/>
		<polygon fill-rule="evenodd" clip-rule="evenodd" fill="#3F73A1" points="189.191,219.47 198.855,265.706 184.493,238.318 
			186.875,234.915 182.281,231.342 186.659,220.862 		"/>
		<polygon fill-rule="evenodd" clip-rule="evenodd" fill="#27557D" points="208.752,219.37 198.855,265.706 214.763,240.34 
			212.673,235.913 217.213,232.294 212.34,221.028 		"/>
		<polygon fill-rule="evenodd" clip-rule="evenodd" fill="#3F73A1" points="208.752,219.37 198.855,265.706 213.217,238.318 
			210.834,234.915 215.428,231.342 212.34,221.028 		"/>
		<polygon fill-rule="evenodd" clip-rule="evenodd" fill="#FFFFFF" points="205.027,217.327 198.855,223.903 203.287,232.639 
			208.633,219.72 		"/>
		<path fill-rule="evenodd" clip-rule="evenodd" fill="#FCB024" d="M196.954,232.234h3.899c0.872,1.807,0.803,3.386,0,4.93h-3.899
			C196.15,235.62,196.083,234.041,196.954,232.234z"/>
		<path fill-rule="evenodd" clip-rule="evenodd" fill="#27557D" d="M198.305,278.689c0.104-3.394,0.36-7.428,0.773-13.477
			c0.416,6.05,0.69,10.086,0.815,13.477C199.365,278.693,198.836,278.692,198.305,278.689z"/>
		<polygon fill-rule="evenodd" clip-rule="evenodd" fill="#FFFFFF" points="185.592,220.873 187.089,234.688 199.093,265.162 
			210.927,234.688 212.424,220.873 206.697,217.189 191.318,217.189 		"/>
		<rect x="191.318" y="212.243" fill-rule="evenodd" clip-rule="evenodd" fill="#D1A886" width="15.245" height="12.421"/>
		<path fill-rule="evenodd" clip-rule="evenodd" fill="#F2CAA9" d="M199.008,219.556c6.008,0,11.57-6.87,14.503-15.287
			c0.172,0.177,0.365,0.288,0.578,0.324c1.195,0.198,2.566-2.047,3.06-5.017c0.493-2.969-0.077-5.537-1.271-5.734
			c-0.085-0.015-0.17-0.016-0.257-0.007c0.587-10.429-3.736-20.063-16.613-20.063c-12.887,0-17.208,9.65-16.613,20.089
			c-0.132-0.034-0.261-0.04-0.391-0.019c-1.195,0.197-1.765,2.766-1.272,5.734c0.494,2.97,1.863,5.215,3.059,5.017
			c0.255-0.043,0.481-0.193,0.675-0.432C187.389,212.627,192.974,219.556,199.008,219.556z"/>
		<path fill-rule="evenodd" clip-rule="evenodd" fill="#57291E" d="M215.623,193.835c0.587-10.429-3.738-20.063-16.615-20.063
			c-12.887,0-17.209,9.65-16.615,20.088c1.042,0.26,2.128,2.169,2.608,4.652c0.84,0.565,1.448,0.235,1.448-1.867
			c0-6.207,0.767-11.707,4.843-13.02c3.879-1.249,4.733,1.492,7.692,1.492c2.96,0,3.895-2.581,7.693-1.492
			c3.943,1.131,4.844,6.813,4.844,13.02c0,2.019,0.56,2.403,1.347,1.932C213.361,195.953,214.532,193.957,215.623,193.835z"/>
		<path fill-rule="evenodd" clip-rule="evenodd" fill="#FFB269" d="M200.997,232.343l0.835-1.766l-2.824-6.847l-2.778,6.736
			l0.888,1.876C198.41,232.343,199.705,232.343,200.997,232.343z"/>
		<polygon fill-rule="evenodd" clip-rule="evenodd" fill="#CCCCCC" points="191.318,217.189 199.008,223.73 194.692,235.277 
			187.73,219.569 		"/>
		<polygon fill-rule="evenodd" clip-rule="evenodd" fill="#27557D" points="187.73,219.569 199.008,265.324 183.181,240.087 
			185.259,235.682 180.742,232.081 185.592,220.873 		"/>
		<polygon fill-rule="evenodd" clip-rule="evenodd" fill="#CCCCCC" points="206.697,217.189 199.008,223.73 203.324,235.277 
			210.284,219.569 		"/>
		<polygon fill-rule="evenodd" clip-rule="evenodd" fill="#FFB269" points="197.118,236.636 200.997,236.636 203.013,256.081 
			199.008,265.324 195.153,256.081 		"/>
		<path fill-rule="evenodd" clip-rule="evenodd" fill="#57291E" d="M210.601,180.559c-1.663,3.325-18.41,12.851-23.957,13.285
			C181.096,194.28,186.349,171.948,210.601,180.559z"/>
		<path fill-rule="evenodd" clip-rule="evenodd" fill="#57291E" d="M202.629,180.559c0.717,3.325,7.934,12.851,10.324,13.285
			C215.344,194.28,213.08,171.948,202.629,180.559z"/>
		<polygon fill-rule="evenodd" clip-rule="evenodd" fill="#FFFFFF" points="191.318,217.189 199.008,223.73 194.599,232.425 
			187.73,219.569 		"/>
		<polygon fill-rule="evenodd" clip-rule="evenodd" fill="#3F73A1" points="187.73,219.569 199.008,265.324 184.718,238.075 
			187.089,234.688 182.519,231.134 185.592,220.873 		"/>
		<polygon fill-rule="evenodd" clip-rule="evenodd" fill="#27557D" points="210.284,219.569 199.008,265.324 214.836,240.087 
			212.756,235.682 217.273,232.081 212.424,220.873 		"/>
		<polygon fill-rule="evenodd" clip-rule="evenodd" fill="#3F73A1" points="210.284,219.569 199.008,265.324 213.297,238.075 
			210.927,234.688 215.498,231.134 212.424,220.873 		"/>
		<polygon fill-rule="evenodd" clip-rule="evenodd" fill="#FFFFFF" points="206.697,217.189 199.008,223.73 203.418,232.425 
			210.284,219.569 		"/>
		<path fill-rule="evenodd" clip-rule="evenodd" fill="#FFB269" d="M197.118,232.021h3.879c0.866,1.797,0.8,3.369,0,4.905h-3.879
			C196.318,235.391,196.25,233.818,197.118,232.021z"/>
		<path fill-rule="evenodd" clip-rule="evenodd" fill="#27557D" d="M198.032,278.689c0.637,0.004,1.272,0.005,1.907,0.002
			c0.233-3.281-0.468-12.029-0.952-13.475C198.503,266.374,197.802,275.234,198.032,278.689z"/>
	</g>
</g>
</svg>
