<?xml version="1.0" encoding="utf-8"?>
<!-- Generator: Adobe Illustrator 16.0.0, SVG Export Plug-In . SVG Version: 6.00 Build 0)  -->
<!DOCTYPE svg PUBLIC "-//W3C//DTD SVG 1.1//EN" "http://www.w3.org/Graphics/SVG/1.1/DTD/svg11.dtd">
<svg version="1.1" id="Layer_1" xmlns="http://www.w3.org/2000/svg" xmlns:xlink="http://www.w3.org/1999/xlink" x="0px" y="0px"
	 width="400px" height="400px" viewBox="0 0 400 400" enable-background="new 0 0 400 400" xml:space="preserve">
<g>
	<g>
		<path fill="#46C35F" d="M199.5,9.329C94.09,9.329,8.329,95.085,8.329,200.5c0,105.415,85.761,191.171,191.171,191.171
			c105.405,0,191.171-85.756,191.171-191.171C390.671,95.085,304.905,9.329,199.5,9.329z M199.5,376.969
			c-97.298,0-176.464-79.175-176.464-176.469c0-97.303,79.166-176.469,176.464-176.469c97.303,0,176.46,79.166,176.46,176.469
			C375.96,297.794,296.803,376.969,199.5,376.969z M299.977,121.483c-3.043-2.707-7.691-2.437-10.389,0.606L176.584,249.217
			l-68.082-54.458c-3.16-2.539-7.804-2.016-10.329,1.148c-2.539,3.174-2.025,7.795,1.144,10.333l73.528,58.826
			c1.354,1.083,2.978,1.605,4.597,1.605c2.03,0,4.051-0.84,5.498-2.464l117.643-132.354
			C303.281,128.83,303.011,124.172,299.977,121.483z"/>
	</g>
</g>
</svg>
