<?xml version="1.0" encoding="utf-8"?>
<!-- Generator: Adobe Illustrator 16.0.0, SVG Export Plug-In . SVG Version: 6.00 Build 0)  -->
<!DOCTYPE svg PUBLIC "-//W3C//DTD SVG 1.1//EN" "http://www.w3.org/Graphics/SVG/1.1/DTD/svg11.dtd">
<svg version="1.1" id="Layer_1" xmlns="http://www.w3.org/2000/svg" xmlns:xlink="http://www.w3.org/1999/xlink" x="0px" y="0px"
	 width="400px" height="400px" viewBox="0 0 400 400" enable-background="new 0 0 400 400" xml:space="preserve">
<g>
	<g>
		<path fill="#ADB7BE" d="M383.678,236.871c-21.285-17.68-44.293-29.396-48.971-31.676c-0.543-0.238-0.849-0.795-0.849-1.432
			v-33.398c4.122-2.836,6.932-7.555,6.932-13.055v-34.67c0-17.217-13.876-31.212-30.96-31.212h-7.329
			c-17.07,0-30.96,13.995-30.96,31.212v34.67c0,5.421,2.73,10.219,6.945,13.055v33.398c0,0.637-0.318,1.113-0.861,1.432
			c-2.877,1.404-12.869,6.441-25.022,14.301c12.153,6.759,31.423,18.395,49.594,33.49c6.388,5.275,10.603,12.578,12.167,20.596H390
			v-23.736C389.762,244.81,387.588,240.025,383.678,236.871z M122.295,205.195c-0.543-0.238-0.861-0.795-0.861-1.432v-33.398
			c4.135-2.836,6.945-7.555,6.945-13.055v-34.67c0-17.217-13.89-31.212-30.96-31.212h-7.488c-17.083,0-30.96,13.995-30.96,31.212
			v34.67c0,5.421,2.73,10.219,6.945,13.055v33.398c0,0.637-0.318,1.113-0.861,1.432c-4.679,2.279-27.687,13.996-48.972,31.676
			C12.266,240.104,10,244.81,10,249.846v23.736h75.637c1.484-8.018,5.778-15.32,12.166-20.596
			c18.171-15.096,37.428-26.731,49.595-33.49C135.164,211.637,125.172,206.6,122.295,205.195z M292.362,264.782
			c-25.42-21.073-52.788-34.989-58.407-37.745c-0.623-0.305-1.008-0.928-1.008-1.644v-39.866c4.983-3.366,8.271-9.039,8.271-15.48
			v-41.35c0-20.596-16.54-37.269-36.964-37.269h-8.813c-20.437,0-36.964,16.673-36.964,37.269v41.35
			c0,6.441,3.273,12.193,8.258,15.48v39.866c0,0.716-0.385,1.339-1.008,1.644c-5.619,2.756-32.987,16.752-58.407,37.745
			c-4.599,3.765-7.25,9.517-7.25,15.479v28.31h86.638l8.574-39.548c-17.309-24.28,1.326-25.473,4.52-25.553
			c3.273,0,21.842,1.193,4.52,25.553l8.588,39.548h86.638v-28.31C299.625,274.299,296.961,268.547,292.362,264.782z"/>
	</g>
</g>
</svg>
