<?xml version="1.0" encoding="utf-8"?>
<!-- Generator: Adobe Illustrator 16.0.0, SVG Export Plug-In . SVG Version: 6.00 Build 0)  -->
<!DOCTYPE svg PUBLIC "-//W3C//DTD SVG 1.1//EN" "http://www.w3.org/Graphics/SVG/1.1/DTD/svg11.dtd">
<svg version="1.1" id="Layer_1" xmlns="http://www.w3.org/2000/svg" xmlns:xlink="http://www.w3.org/1999/xlink" x="0px" y="0px"
	 width="400px" height="400px" viewBox="0 0 400 400" enable-background="new 0 0 400 400" xml:space="preserve">
<g>
	<g>
		<path fill="#94A2AF" d="M274.427,210.179c0,39.494-33.313,71.502-74.427,71.502c-41.115,0-74.443-32.008-74.443-71.502H94.216
			c0,51.191,39.415,93.53,90.669,100.555v63.509c0,2.924,3.004,5.275,6.723,5.275h16.783c3.719,0,6.722-2.352,6.722-5.275v-63.509
			c51.255-7.024,90.67-49.363,90.67-100.555H274.427z M200,268.235c36.156,0,65.479-28.161,65.479-62.896V84.378
			c0-34.734-29.322-62.896-65.479-62.896s-65.479,28.163-65.479,62.896V205.34C134.521,240.074,163.844,268.235,200,268.235z"/>
	</g>
</g>
</svg>
