<?xml version="1.0" encoding="utf-8"?>
<!-- Generator: Adobe Illustrator 16.0.0, SVG Export Plug-In . SVG Version: 6.00 Build 0)  -->
<!DOCTYPE svg PUBLIC "-//W3C//DTD SVG 1.1//EN" "http://www.w3.org/Graphics/SVG/1.1/DTD/svg11.dtd">
<svg version="1.1" id="Layer_1" xmlns="http://www.w3.org/2000/svg" xmlns:xlink="http://www.w3.org/1999/xlink" x="0px" y="0px"
	 width="400px" height="400px" viewBox="0 0 400 400" enable-background="new 0 0 400 400" xml:space="preserve">
<g>
	<g>
		<path fill="#94A2AF" d="M382.458,134.162C335.05,87.932,271.834,59.919,200,59.919S63.506,87.932,17.534,134.162
			c-2.872,2.805-4.309,5.602-4.309,9.804c0,4.203,1.437,7.007,4.309,9.812l20.117,19.608c5.745,5.601,14.364,5.601,20.109,0
			c35.917-35.02,86.205-57.432,142.239-57.432c56.026,0,106.307,22.412,142.239,57.432c5.745,5.601,14.364,5.601,20.109,0
			l20.109-19.608c2.888-2.804,4.316-5.608,4.316-9.812C386.774,139.764,385.346,135.561,382.458,134.162z M200,171.987
			c-40.233,0-74.707,15.405-100.569,40.629c-5.753,5.593-5.753,13.999,0,19.607l20.109,19.607c5.753,5.594,14.371,5.594,20.117,0
			c15.8-15.412,37.354-23.817,60.343-23.817s44.535,9.804,60.343,23.817c5.746,5.594,14.364,5.594,20.109,0l20.109-19.607
			c5.745-5.608,5.745-14.015,0-19.607C274.707,187.392,240.219,171.987,200,171.987z M200,284.055
			c-15.868,0-28.735,12.54-28.735,28.014c0,15.473,12.867,28.013,28.735,28.013s28.728-12.54,28.728-28.013
			C228.728,296.595,215.868,284.055,200,284.055z"/>
	</g>
</g>
</svg>
