<?xml version="1.0" encoding="utf-8"?>
<!-- Generator: Adobe Illustrator 16.0.0, SVG Export Plug-In . SVG Version: 6.00 Build 0)  -->
<!DOCTYPE svg PUBLIC "-//W3C//DTD SVG 1.1//EN" "http://www.w3.org/Graphics/SVG/1.1/DTD/svg11.dtd">
<svg version="1.1" id="Layer_1" xmlns="http://www.w3.org/2000/svg" xmlns:xlink="http://www.w3.org/1999/xlink" x="0px" y="0px"
	 width="400px" height="400px" viewBox="0 0 400 400" enable-background="new 0 0 400 400" xml:space="preserve">
<g>
	<g>
		<path fill="#94A2AF" d="M292.964,148.047c-19.744,0-35.76,15.475-35.76,34.56c0,19.079,16.016,34.555,35.76,34.555
			c19.732,0,35.748-15.477,35.748-34.555C328.712,163.522,312.696,148.047,292.964,148.047z M338.443,129.694
			c-12.389-9.973-28.112-16.201-45.479-16.201c-17.232,0-32.831,6.132-45.164,15.948H64.13c-23.596,0-42.895,18.668-42.895,41.464
			v55.291c0,22.795,19.299,41.469,42.895,41.469v11.939c0,3.783,3.222,6.904,7.152,6.904h23.652c3.925,0,7.151-3.121,7.151-6.904
			v-11.939h195.822v11.939c0,3.783,3.232,6.904,7.152,6.904h23.651c3.942,0,7.163-3.121,7.163-6.904v-11.939
			c23.585,0,42.89-18.674,42.89-41.469v-55.291C378.753,148.954,360.834,131.012,338.443,129.694z M71.378,226.195
			c0,3.795-5.451,6.914-12.102,6.914c-6.623,0-12.08-3.119-12.08-6.914v-55.291c0-3.801,5.463-6.91,12.08-6.91
			c6.656,0,12.102,3.109,12.102,6.91V226.195z M109.463,226.195c0,3.795-5.411,6.914-12.067,6.914c-6.634,0-12.08-3.119-12.08-6.914
			v-55.291c0-3.801,5.451-6.91,12.08-6.91c6.662,0,12.067,3.109,12.067,6.91V226.195z M147.583,226.195
			c0,3.795-5.463,6.914-12.074,6.914c-6.662,0-12.102-3.119-12.102-6.914v-55.291c0-3.801,5.445-6.91,12.102-6.91
			c6.622,0,12.074,3.109,12.074,6.91V226.195z M292.964,230.971c-27.64,0-50.063-21.66-50.063-48.364
			c0-26.721,22.424-48.38,50.063-48.38s50.052,21.659,50.052,48.38C343.016,209.311,320.604,230.971,292.964,230.971z"/>
	</g>
</g>
</svg>
