<?xml version="1.0" encoding="utf-8"?>
<!-- Generator: Adobe Illustrator 16.0.0, SVG Export Plug-In . SVG Version: 6.00 Build 0)  -->
<!DOCTYPE svg PUBLIC "-//W3C//DTD SVG 1.1//EN" "http://www.w3.org/Graphics/SVG/1.1/DTD/svg11.dtd">
<svg version="1.1" id="Layer_1" xmlns="http://www.w3.org/2000/svg" xmlns:xlink="http://www.w3.org/1999/xlink" x="0px" y="0px"
	 width="400px" height="400px" viewBox="0 0 400 400" enable-background="new 0 0 400 400" xml:space="preserve">
<g>
	<g>
		<path fill="#94A2AF" d="M320.575,275.986c-29.377,34.883-72.435,57.057-120.575,57.057c-48.142,0-91.2-22.174-120.584-57.057
			c-24.67,18.38-39.716,42.358-39.716,68.677c0,57.663,71.761,23.188,160.3,23.188c88.511,0,160.301,34.476,160.301-23.188
			C360.301,318.345,345.235,294.366,320.575,275.986z M200,313.078c77.903,0,141.072-65.637,141.072-146.58
			c0-80.941-63.169-146.57-141.072-146.57c-77.904,0-141.064,65.629-141.064,146.57C58.936,247.441,122.096,313.078,200,313.078z
			 M200,93.218c38.951,0,70.537,32.837,70.537,73.281c0,40.444-31.586,73.282-70.537,73.282c-38.961,0-70.536-32.838-70.536-73.282
			C129.464,126.055,161.039,93.218,200,93.218z M200,219.798c28.325,0,51.292-23.887,51.292-53.299
			c0-29.401-22.967-53.298-51.292-53.298s-51.301,23.897-51.301,53.298C148.699,195.911,171.675,219.798,200,219.798z
			 M212.81,139.776c7.117,0,12.918,6.005,12.918,13.417c0,7.413-5.801,13.426-12.918,13.426c-7.146,0-12.92-6.014-12.92-13.426
			C199.889,145.781,205.663,139.776,212.81,139.776z"/>
	</g>
</g>
</svg>
