<?xml version="1.0" encoding="utf-8"?>
<!-- Generator: Adobe Illustrator 16.0.0, SVG Export Plug-In . SVG Version: 6.00 Build 0)  -->
<!DOCTYPE svg PUBLIC "-//W3C//DTD SVG 1.1//EN" "http://www.w3.org/Graphics/SVG/1.1/DTD/svg11.dtd">
<svg version="1.1" id="Layer_1" xmlns="http://www.w3.org/2000/svg" xmlns:xlink="http://www.w3.org/1999/xlink" x="0px" y="0px"
	 width="400px" height="400px" viewBox="0 0 400 400" enable-background="new 0 0 400 400" xml:space="preserve">
<g>
	<g>
		<path fill="#00A8FF" d="M336.427,274.801l-20.917,20.925l10.545,10.552c1.104,1.102,1.096,2.891,0,3.993L201.495,360
			c-1.103,1.109-2.894,1.102-3.993,0.007L73.008,310.333c-1.103-1.103-1.103-2.892,0-3.994l12.434-12.438l-20.913-20.924
			l-12.435,12.438c-12.635,12.646-12.642,33.209-0.006,45.849l124.494,49.667c12.632,12.638,33.188,12.638,45.826-0.007
			l124.557-49.729c12.639-12.646,12.639-33.209,0.008-45.848L336.427,274.801z M337.147,166.963l-19.917,19.922l10.732,10.729
			c1.095,1.104,1.095,2.892-0.008,3.994l-124.554,49.733c-1.101,1.102-2.892,1.102-3.993,0L74.914,201.67
			c-1.102-1.103-1.102-2.895,0-3.997l11.439-11.442l-19.904-19.912l-12.643,12.646c-11.418,11.422-11.422,30.009-0.007,41.427
			l126.897,52.073c11.414,11.419,29.988,11.411,41.406-0.007l126.962-52.136c11.419-11.426,11.419-30.009,0.008-41.428
			L337.147,166.963z M181.424,164.613c11.416,11.419,29.996,11.415,41.415-0.008l126.955-52.135
			c11.419-11.422,11.427-30.006,0.007-41.424L222.907,18.97c-11.418-11.419-29.995-11.415-41.41,0.011L54.538,71.116
			c-11.418,11.421-11.422,30.005-0.011,41.423L181.424,164.613z M75.643,89.824l124.557-49.733c1.103-1.103,2.894-1.103,3.997,0
			l124.493,49.671c1.103,1.102,1.103,2.895,0,3.996l-124.557,49.734c-1.102,1.102-2.895,1.102-3.996,0L75.643,93.82
			C74.539,92.719,74.539,90.927,75.643,89.824z"/>
	</g>
</g>
</svg>
