<?xml version="1.0" encoding="utf-8"?>
<!-- Generator: Adobe Illustrator 16.0.0, SVG Export Plug-In . SVG Version: 6.00 Build 0)  -->
<!DOCTYPE svg PUBLIC "-//W3C//DTD SVG 1.1//EN" "http://www.w3.org/Graphics/SVG/1.1/DTD/svg11.dtd">
<svg version="1.1" id="Layer_1" xmlns="http://www.w3.org/2000/svg" xmlns:xlink="http://www.w3.org/1999/xlink" x="0px" y="0px"
	 width="400px" height="400px" viewBox="0 0 400 400" enable-background="new 0 0 400 400" xml:space="preserve">
<g>
	<g>
		<path fill="#FFFFFF" d="M388.705,238.841c-21.935-18.392-45.633-30.579-50.455-32.945c-0.559-0.25-0.882-0.823-0.882-1.47v-34.754
			c4.263-2.94,7.145-7.851,7.145-13.569v-36.048c0-17.906-14.29-32.46-31.872-32.46h-7.557c-17.582,0-31.887,14.554-31.887,32.46
			v36.048c0,5.645,2.808,10.629,7.145,13.569v34.754c0,0.646-0.323,1.146-0.882,1.47c-2.984,1.47-13.246,6.704-25.786,14.878
			c12.54,7.026,32.372,19.126,51.087,34.826c6.586,5.484,10.923,13.085,12.525,21.42h77.916v-24.684
			C394.967,247.103,392.703,242.119,388.705,238.841z M119.459,205.896c-0.559-0.25-0.882-0.823-0.882-1.47v-34.754
			c4.256-2.94,7.145-7.851,7.145-13.569v-36.048c0-17.906-14.297-32.46-31.887-32.46h-7.711c-17.59,0-31.887,14.554-31.887,32.46
			v36.048c0,5.645,2.815,10.629,7.145,13.569v34.754c0,0.646-0.316,1.146-0.882,1.47c-4.814,2.366-28.513,14.554-50.439,32.945
			c-3.933,3.352-6.263,8.262-6.263,13.495v24.684h77.909c1.529-8.335,5.947-15.936,12.533-21.42
			c18.715-15.7,38.554-27.8,51.087-34.826C132.712,212.6,122.429,207.365,119.459,205.896z M294.646,267.861
			c-26.198-21.905-54.395-36.371-60.172-39.238c-0.633-0.323-1.044-0.984-1.044-1.72v-41.442c5.146-3.528,8.526-9.409,8.526-16.113
			v-43.001c0-21.419-17.039-38.752-38.084-38.752h-9.077c-21.038,0-38.069,17.333-38.069,38.752v43.001
			c0,6.704,3.374,12.672,8.512,16.113v41.442c0,0.735-0.397,1.396-1.043,1.72c-5.778,2.867-33.975,17.422-60.158,39.238
			c-4.741,3.925-7.468,9.894-7.468,16.112v29.432h89.236l8.835-41.119c-17.833-25.271,1.36-26.491,4.661-26.58
			c3.374,0,22.485,1.235,4.652,26.58l8.836,41.119h89.236v-29.432C302.114,277.755,299.38,271.786,294.646,267.861z"/>
	</g>
</g>
</svg>
