<?xml version="1.0" encoding="utf-8"?>
<!-- Generator: Adobe Illustrator 16.0.0, SVG Export Plug-In . SVG Version: 6.00 Build 0)  -->
<!DOCTYPE svg PUBLIC "-//W3C//DTD SVG 1.1//EN" "http://www.w3.org/Graphics/SVG/1.1/DTD/svg11.dtd">
<svg version="1.1" id="Selected_Items" xmlns="http://www.w3.org/2000/svg" xmlns:xlink="http://www.w3.org/1999/xlink" x="0px"
	 y="0px" width="536.016px" height="233.275px" viewBox="0 0 536.016 233.275" enable-background="new 0 0 536.016 233.275"
	 xml:space="preserve">
<g>
	<g>
		<path fill="#D62828" d="M421.606,107.723h-5.572l-2.601,0.743l-3.341,2.229l-1.117,1.113l-0.74,1.116l-1.487,2.972l-1.113,5.197
			v1.857l-0.373,2.231v2.228l0.743,4.088v1.857l0.374,1.482l1.482,2.972l0.744,1.116l0.743,1.484l1.113,1.113l2.602,1.856
			l1.483,0.743l2.975,0.744h4.085l1.487-0.37l1.112-0.743l1.113-0.374l3.345-3.341l0.74-1.487l0.374-0.369l0.37-1.113v-0.374h0.373
			v-1.113l0.37-0.744v-0.37l0.37-0.373v-2.228l0.374-0.744v-4.458h0.369l-0.369-1.482v-3.346l-0.374-1.856v-1.113l-0.37-0.744
			l-0.37-1.113v-0.743l-1.857-3.716l-2.975-2.971l-0.739-0.37l-0.374-0.374h-0.744l-1.112-0.744L421.606,107.723z M389.662,74.292
			h15.6v29.717l2.229-2.228l3.715-2.975l4.458-2.228l2.229-0.744l2.601-0.37h5.198l1.117,0.37h1.484l4.458,1.487l1.112,0.744
			l1.114,0.37l2.23,1.486l0.743,0.74l1.113,0.744l0.744,1.114l1.855,1.856l2.973,4.458l0.743,1.487l0.369,1.114l0.744,1.486
			l1.113,4.455v1.487l0.37,1.857v3.345l0.373,1.856v1.857l-0.373,1.857v1.482l-0.37,1.857v1.486l-1.113,4.828l-0.744,1.114
			l-0.369,1.487l-0.373,0.37v0.373l-0.37,0.739l-0.374,1.117l-0.74,1.113l-1.117,1.114v0.369l-0.739,0.743l-0.743,1.114
			l-3.715,3.714l-2.23,1.487l-0.74,0.37l-0.374,0.374l-2.227,0.743l-0.744,0.369h-0.743v0.37h-0.744l-2.598,0.744h-1.117
			l-1.113,0.373h-2.601l-1.484-0.373h-1.112l-1.487-0.37l-4.828-1.856l-1.113-0.744l-1.487-0.743l-1.113-1.114l-1.113-0.743
			l-2.975-2.971l-0.74-1.487v8.916h-14.858V74.292H389.662z"/>
	</g>
	<g>
		<path fill="#D62828" d="M359.571,112.925l-1.482-1.486l-0.743-1.114l-2.231-1.487l-0.738-0.37l-2.231-0.743h-4.828l-3.345,1.113
			l-0.74,0.744l-1.117,0.744l-0.74,1.114l-0.742,0.744l-1.487,2.227l-0.744,2.601v1.487l-0.369,1.483v1.486h23.774v-1.856
			l-0.374-0.743v-1.487l-0.37-0.739l-0.743-2.602L359.571,112.925z M367.002,101.408l1.112,0.744l1.117,1.114l0.74,1.112
			l1.117,1.118l1.483,2.228l2.23,4.458l0.37,1.482l0.742,1.487l0.744,3.715v1.487l0.37,2.228v1.857l0.37,2.227v4.088h-39.743v1.857
			l1.113,4.459l0.744,1.482l0.369,1.113l0.743,1.117l1.857,1.857l1.113,0.739l0.744,0.743l4.828,1.487h3.345l0.369-0.373h1.487
			l1.483-0.74h0.373l0.37-0.374l0.744-0.369l0.369-0.744l1.113-1.112l0.374-0.744l0.369-1.113l0.374-0.744l0.37-1.112l0.37-0.374
			v-0.739l15.976,2.971l-0.744,1.483v0.374l-0.743,1.112l-0.369,0.744l-0.374,1.113l-0.743,0.743l-0.37,0.744l-0.743,1.112
			l-0.37,0.744l-2.972,2.972l-0.743,0.369l-1.113,1.113h-0.374v0.374l-0.744,0.37l-1.112,0.743h-0.74v0.37l-1.114,0.374l-0.742,0.37
			l-1.114,0.373h-0.37l-0.373,0.369l-1.114,0.37h-1.113l-1.112,0.374h-1.114l-1.117,0.37h-1.114l-1.114,0.373h-4.458l-1.857-0.373
			h-1.855l-4.829-1.114l-1.487-0.742l-1.483-0.37l-2.971-1.487l-1.117-0.744l-2.228-2.227l-1.113-0.744l-1.114-1.113l-0.742-1.487
			l-0.744-0.739l-2.228-3.346l-0.744-2.228l-0.742-1.487l-0.744-2.601v-1.113l-0.37-1.487v-1.113l-0.373-1.483v-10.03l0.373-1.486
			v-1.483l0.744-3.345l0.738-1.114l0.374-1.487l0.744-1.482l0.369-1.117l0.744-1.484l1.483-2.23l4.089-4.084l5.57-4.084l1.114-0.374
			l1.487-0.744l1.113-0.37l5.57-1.114h5.942l3.345,0.744h1.483l2.601,0.74l1.487,0.744l1.114,0.744l1.112,0.37l1.487,0.743
			l1.114,0.744L367.002,101.408z"/>
	</g>
	<g>
		<path fill="#0282C3" d="M0,116.64c0-32.194,11.268-59.685,33.801-82.466C56.339,11.391,83.455,0,115.152,0
			s58.813,11.392,81.351,34.175c22.534,22.781,33.802,50.271,33.802,82.466c0,32.189-11.268,59.68-33.802,82.461
			c-22.538,22.783-49.653,34.175-81.351,34.175s-58.813-11.392-81.352-34.175C11.267,176.319,0,148.83,0,116.64z"/>
	</g>
	<g>
		<polygon fill="#D62828" points="302.369,96.949 317.969,96.949 298.654,156.013 283.423,156.013 273.022,118.123 262.992,156.013 
			247.391,156.013 228.447,96.949 244.049,96.949 255.193,135.583 265.593,96.949 280.821,96.949 290.852,135.583 		"/>
	</g>
	<g>
		<polygon fill="#FFFFFF" points="197.617,84.322 207.273,84.322 207.273,96.949 231.418,96.949 231.418,105.496 207.273,105.496 
			207.273,139.297 207.647,140.411 207.647,142.269 208.017,143.011 208.017,143.382 208.387,143.756 208.387,144.125 
			208.761,144.869 210.988,147.097 215.446,148.584 216.934,148.584 218.417,148.954 219.905,148.954 225.847,148.214 
			227.334,148.214 227.704,147.84 228.817,147.84 231.792,147.097 231.792,155.643 224.733,156.757 218.047,157.127 216.56,156.757 
			212.476,156.757 210.245,156.013 209.131,156.013 206.903,155.27 206.16,154.899 205.046,154.525 203.559,153.785 
			203.189,153.042 201.702,152.298 200.958,150.811 200.218,150.071 199.101,147.469 199.101,146.356 198.361,144.125 
			198.361,143.011 197.987,141.524 197.987,140.411 197.617,138.927 197.617,105.496 188.701,105.496 188.701,96.949 
			197.617,96.949 		"/>
	</g>
	<g>
		<polygon fill="#FFFFFF" points="170.871,67.606 174.216,66.493 175.33,66.493 176.443,66.119 177.557,66.119 179.044,65.749 
			187.217,66.119 194.272,67.606 196.13,68.35 196.13,77.263 192.415,75.779 189.074,75.036 182.385,74.292 180.901,74.292 
			179.044,74.662 177.93,74.662 176.443,75.036 175.33,75.779 174.216,76.149 171.985,78.376 171.615,79.494 170.871,80.607 
			169.758,85.436 169.758,96.949 184.616,96.949 184.616,105.496 169.758,105.496 169.758,157.87 160.841,157.87 160.841,105.496 
			146.727,105.496 146.727,96.949 160.841,96.949 160.841,84.322 161.215,81.721 161.955,79.12 162.329,76.893 163.072,75.779 
			163.442,74.662 164.186,73.177 164.929,72.064 165.669,71.691 166.043,70.947 167.527,69.463 168.271,69.09 169.014,68.35 
			170.127,67.977 		"/>
	</g>
	<g>
		<path fill="#FFFFFF" d="M132.238,111.068l-0.37-0.744l-1.856-2.601l-0.37-1.114l-1.487-1.487l-0.37-0.744l-0.744-0.37
			l-0.744-0.743l-1.112-0.37l-0.744-0.744l-1.487-0.744l-1.114-0.37h-0.743l-1.114-0.374h-5.942l-1.114,0.374h-0.742l-1.114,0.37
			l-1.487,0.744l-0.744,0.744l-0.744,0.37l-1.483,1.112l-1.113,1.487l-0.744,0.744l-1.856,2.601l-0.374,1.114l-1.484,2.971
			l-0.744,2.229l-1.113,7.803v5.941l0.743,5.571l0.37,1.113v1.118l1.114,3.341l0.744,1.113l0.37,1.117l1.486,2.598l0.744,0.743
			l0.744,1.114l1.857,1.856l0.739,0.373l0.744,0.744l2.231,1.113l1.114,0.369h0.742l1.114,0.374h1.857l1.113,0.369l0.37-0.369h2.602
			l0.374-0.374h1.483l1.114-0.369l2.231-1.113l1.112-0.744v-0.373h0.744l0.744-0.74l0.37-0.744l0.744-0.373l0.744-1.113l0.37-0.743
			l0.743-0.74l0.37-1.117l0.744-0.739l1.113-3.346l0.374-0.37v-0.742l0.74-2.231v-0.739l0.374-0.374v-1.482l0.369-1.117v-11.514
			l-0.369-2.602L132.238,111.068z M111.808,91.751h10.403l5.942,1.484l1.487,0.744l1.483,0.374l1.113,0.739l1.487,0.744l1.113,0.744
			l1.114,1.113l1.117,0.744l2.228,2.228l0.744,1.487l1.113,1.114l0.744,1.112l2.971,5.946l0.744,2.971l0.744,1.857v1.856l0.74,3.345
			v1.856l0.374,2.229v3.714l-0.374,2.228v1.857l-0.74,3.714v1.487l-0.374,0.37v0.744l-0.37,0.742l-0.744,2.973l-0.744,1.855
			l-0.744,1.114l-0.369,0.743v0.374l-0.37,0.37v0.369l-0.374,0.373l-0.37,0.744l-0.374,0.37v0.37l-0.37,0.373l-0.37,0.744
			l-1.487,1.482v0.374l-2.228,2.228l-1.117,0.744l-1.114,1.112l-1.113,0.744l-1.487,0.743l-1.113,0.74l-0.744,0.374h-0.369
			l-0.37,0.369l-2.976,0.744l-1.482,0.742h-1.487l-3.341,0.744h-6.689l-3.341-0.744h-1.487l-1.483-0.742l-2.976-0.744l-1.482-0.743
			l-1.114-0.74l-1.487-0.743l-1.113-0.744l-1.113-1.112l-1.118-0.744l-1.113-1.113l-0.744-1.113l-1.113-1.117l-1.857-2.598
			l-1.482-2.975l-0.744-1.114l-0.744-1.855l-2.229-10.03v-11.884l2.229-10.03l2.971-5.946l0.744-1.112l1.114-1.114l2.971-3.715
			l4.832-3.345l1.484-0.739l1.486-0.374l1.113-0.744L111.808,91.751z"/>
	</g>
	<g>
		<polygon fill="#FFFFFF" points="31.574,85.436 32.688,82.091 34.918,78.376 38.633,74.662 41.23,72.805 47.546,70.577 
			50.147,70.577 51.261,70.207 54.605,70.207 64.262,71.691 71.691,74.292 71.691,85.806 66.493,83.208 59.434,80.978 
			54.975,80.234 51.261,80.234 49.777,80.607 48.29,80.607 44.575,81.721 43.832,82.465 42.718,83.208 41.974,83.948 41.604,84.692 
			40.86,85.806 39.747,89.15 39.747,94.352 40.117,95.466 40.117,96.58 40.491,97.693 40.86,98.437 41.604,99.18 41.974,100.294 
			42.718,101.038 43.832,101.408 45.689,103.265 46.802,104.009 65.005,112.551 66.493,113.665 67.976,114.409 69.463,115.522 
			71.691,117.753 72.805,119.237 73.548,120.724 74.292,121.838 75.779,125.183 77.263,131.868 77.263,136.696 76.893,138.184 
			76.893,139.667 75.036,145.612 74.662,146.356 74.292,146.727 73.922,147.84 72.435,150.071 72.064,150.441 72.064,150.811 
			70.947,151.929 70.207,153.042 69.09,153.785 67.976,154.899 67.606,154.899 66.493,156.013 65.375,156.757 64.262,157.127 
			63.148,157.87 60.547,158.614 60.177,158.614 60.177,158.983 59.434,158.983 56.833,159.728 55.719,159.728 54.231,160.098 
			49.403,160.098 47.92,159.728 45.689,159.728 44.575,159.357 43.832,159.357 43.088,158.983 41.974,158.983 41.23,158.614 
			40.491,158.614 34.918,157.127 33.431,156.383 31.944,156.013 30.087,155.27 30.087,142.269 39.373,147.097 40.491,147.84 
			48.29,150.071 50.891,150.071 51.634,150.441 52.004,150.071 54.975,150.071 56.462,149.697 57.206,149.327 57.946,149.327 
			59.434,148.584 59.804,148.584 60.177,148.214 60.547,148.214 61.291,147.469 62.034,147.097 62.404,146.727 63.148,146.356 
			64.262,145.239 65.749,143.011 66.119,142.642 66.493,141.898 66.493,140.784 66.863,140.411 66.863,139.667 67.232,139.297 
			67.232,133.726 66.863,132.611 66.863,131.498 66.493,130.754 66.119,129.641 65.375,128.897 65.005,128.153 64.262,127.41 
			63.148,126.666 62.778,126.296 62.034,125.926 59.434,124.069 57.206,122.952 56.462,122.211 47.92,118.497 45.689,117.01 
			44.575,116.64 43.461,115.896 41.23,114.782 39.747,113.295 38.633,112.551 37.89,112.182 36.776,110.694 36.032,109.951 
			35.289,109.581 34.545,108.093 33.431,106.979 31.944,104.009 30.831,99.55 30.831,96.58 30.46,94.722 30.831,91.751 
			30.831,89.15 31.574,86.549 		"/>
	</g>
	<g>
		<path d="M475.469,181.645v4.085c2.478-1.98,4.582-3.346,6.314-4.085c1.98-0.743,3.838-1.117,5.572-1.117
			c3.961,0,7.306,1.364,10.03,4.089c2.474,2.474,3.714,6.065,3.714,10.771v26.745h-10.03v-21.174l-0.373-2.598v-2.23l-0.37-1.482
			c-0.247-1.241-0.989-2.479-2.228-3.715c-0.99-0.744-2.23-1.117-3.715-1.117c-2.23,0-4.088,0.743-5.571,2.229
			c-0.99,1.237-1.984,3.096-2.975,5.572l-0.37,1.113v23.4h-10.03v-40.486H475.469z M529.329,182.385
			c2.726,1.487,4.705,3.099,5.942,4.832l-6.313,6.313c-2.478-2.475-4.703-3.715-6.688-3.715l-1.484,0.373h-0.742l-0.37,0.37
			c-0.744,0.497-1.117,1.113-1.117,1.856v0.744l1.117,1.113l0.739,0.374l0.743,0.738l1.114,0.374l3.714,1.857
			c3.965,1.979,6.563,3.961,7.804,5.941c1.483,1.979,2.228,4.335,2.228,7.06c0,3.715-1.36,6.686-4.084,8.913
			c-2.479,2.478-5.946,3.714-10.4,3.714c-5.698,0-10.403-2.351-14.118-7.055l6.315-6.687c0.99,1.483,2.354,2.598,4.088,3.341
			c1.483,0.743,2.971,1.113,4.455,1.113c1.487,0,2.478-0.247,2.975-0.74c0.739-0.742,1.113-1.486,1.113-2.229
			c0-1.734-1.364-3.341-4.088-4.828l-3.342-1.487c-6.686-3.218-10.029-7.43-10.029-12.628c0-2.971,1.236-5.694,3.714-8.173
			c2.726-2.228,5.819-3.345,9.287-3.345C524.379,180.527,526.852,181.148,529.329,182.385z M322.056,166.043v56.089h-10.03v-56.089
			H322.056z M341.372,181.645v22.288l0.37,2.228v1.487l0.37,1.482c0.744,1.734,1.61,2.849,2.603,3.346
			c1.239,0.742,2.601,1.112,4.088,1.112c1.979,0,3.464-0.37,4.454-1.112c0.989-0.497,1.856-1.61,2.602-3.346l0.373-1.112v-26.373
			h10.4v17.086c0,6.686-0.62,11.514-1.857,14.487c-1.487,3.219-3.468,5.695-5.945,7.431c-2.474,1.729-5.817,2.597-10.025,2.597
			c-3.965,0-7.558-0.99-10.773-2.971c-2.479-1.733-4.335-4.581-5.572-8.543c-0.743-2.228-1.112-6.687-1.112-13.371v-16.716H341.372z
			 M377.774,166.787h10.03v14.857h5.941v8.543h-5.941v31.943h-10.03v-31.943h-5.201v-8.543h5.201V166.787z M409.719,171.615
			c0,1.979-0.743,3.468-2.229,4.458c-0.989,1.237-2.478,1.857-4.458,1.857h-1.112l-1.114-0.374c-0.99-0.246-1.733-0.743-2.23-1.483
			c-1.236-1.241-1.856-2.848-1.856-4.832c0-1.73,0.62-3.218,1.856-4.454c1.24-1.241,2.725-1.856,4.458-1.856
			c1.734,0,3.219,0.615,4.458,1.856C408.976,168.271,409.719,169.881,409.719,171.615z M408.235,181.645v40.486h-10.03v-40.486
			H408.235z M446.864,183.502c3.223,1.98,5.695,4.582,7.431,7.8c1.979,2.972,2.971,6.438,2.971,10.399
			c0,3.715-0.99,7.307-2.971,10.774c-1.981,3.467-4.458,6.064-7.431,7.799c-3.468,1.979-7.055,2.971-10.77,2.971
			c-5.699,0-10.65-2.104-14.858-6.312c-3.965-3.966-5.944-8.916-5.944-14.858c0-6.438,2.229-11.764,6.686-15.976
			c4.211-3.716,8.916-5.572,14.118-5.572C439.81,180.527,443.396,181.518,446.864,183.502z M443.894,193.529
			c-1.733-2.229-4.335-3.342-7.799-3.342c-2.976,0-5.572,1.113-7.804,3.342c-1.979,2.478-2.972,5.201-2.972,8.172
			c0,3.469,0.991,6.439,2.972,8.917c2.479,1.98,5.078,2.971,7.804,2.971c3.464,0,6.064-1.112,7.799-3.345
			c2.228-1.729,3.345-4.581,3.345-8.543C447.238,198.484,446.121,195.76,443.894,193.529z M302.369,212.476
			c-1.732,3.468-4.335,6.064-7.803,7.799c-3.468,1.979-7.057,2.971-10.771,2.971c-5.944,0-10.772-2.104-14.487-6.312
			c-4.211-4.212-6.315-9.163-6.315-14.858c0-6.689,2.354-12.011,7.06-15.976c4.208-3.716,8.789-5.572,13.744-5.572
			c3.715,0,7.304,0.99,10.771,2.975c3.468,1.98,6.068,4.582,7.803,7.8c1.73,3.219,2.598,6.687,2.598,10.399
			C304.967,205.663,304.1,209.254,302.369,212.476z M236.247,177.187c-0.99,0.989-1.483,1.733-1.483,2.228
			c0,0.99,0.369,1.857,1.113,2.602l0.744,1.113l13.745,12.257c2.474,2.479,3.961,4.582,4.455,6.315
			c0.991,1.734,1.487,3.838,1.487,6.316c0,4.458-1.61,8.173-4.828,11.144c-2.972,2.971-6.937,4.458-11.887,4.458
			c-3.469,0-6.81-0.99-10.03-2.971c-2.475-1.734-4.952-4.705-7.43-8.917l8.918-5.201c2.474,4.704,5.448,7.059,8.912,7.059
			c1.734,0,3.222-0.497,4.458-1.486c1.241-1.236,1.857-2.475,1.857-3.715c0-0.99-0.494-2.228-1.484-3.715l-5.944-5.571
			c-5.942-4.705-9.78-8.543-11.515-11.515c-1.733-2.478-2.601-5.074-2.601-7.799c0-3.715,1.487-6.937,4.458-9.66
			c2.474-2.725,5.942-4.085,10.4-4.085c2.971,0,5.571,0.617,7.799,1.857c2.478,1.236,5.078,3.591,7.803,7.056l-7.429,6.688
			c-2.479-3.714-5.202-5.571-8.174-5.571C238.104,176.073,236.99,176.443,236.247,177.187z M283.796,190.188
			c-2.975,0-5.57,1.113-7.803,3.342c-1.979,2.478-2.971,5.201-2.971,8.172c0,3.469,0.99,6.439,2.971,8.917
			c2.479,1.98,5.079,2.971,7.803,2.971c3.466,0,6.065-1.112,7.801-3.345c2.228-1.729,3.345-4.581,3.345-8.543
			c0-2.971-0.99-5.694-2.976-8.172C289.738,191.302,287.014,190.188,283.796,190.188z"/>
	</g>
</g>
</svg>
